<?xml version="1.0" encoding="UTF-8"?>
<!DOCTYPE svg PUBLIC "-//W3C//DTD SVG 1.1//EN" "http://www.w3.org/Graphics/SVG/1.1/DTD/svg11.dtd">
<!-- Creator: CorelDRAW 2020 (64-Bit) -->
<svg xmlns="http://www.w3.org/2000/svg" xml:space="preserve" width="548.603mm" height="300.331mm" version="1.1" style="shape-rendering:geometricPrecision; text-rendering:geometricPrecision; image-rendering:optimizeQuality; fill-rule:evenodd; clip-rule:evenodd"
viewBox="0 0 5020.77 2748.61"
 xmlns:xlink="http://www.w3.org/1999/xlink"
 xmlns:xodm="http://www.corel.com/coreldraw/odm/2003">
 <defs>
  <style type="text/css">
   <![CDATA[
    .fil0 {fill:#30302F;fill-rule:nonzero}
    .fil1 {fill:white;fill-rule:nonzero}
   ]]>
  </style>
 </defs>
 <g id="Слой_x0020_1">
  <metadata id="CorelCorpID_0Corel-Layer"/>
  <g id="_2027430105120">
   <g>
    <path class="fil0" d="M2713.21 521.46c213.76,120.54 369.17,249.96 347.11,289.1l-229.56 407.09c-4.87,8.65 -68.16,-30.58 -68.16,-30.58 -46.58,-81.79 -124.25,-160.48 -283.56,-250.31 -159.31,-89.82 -240.97,-107.11 -356.45,-110.56 0,0 -70.81,-36.38 -65.92,-45.03l229.55 -407.1c22.05,-39.13 213.24,26.86 427,147.38z"/>
    <path class="fil0" d="M2125.26 816.02c-3.61,-1.88 -11.58,-6.11 -20.62,-11.2 -23.08,-13.02 -32.53,-20.07 -36.3,-23.41l226.83 -402.29c4.27,-7.56 36.78,-13.44 129.31,18.5 80.08,27.63 180.83,74.79 283.7,132.79 102.86,58.02 195.35,119.81 260.46,174.03 75.2,62.63 87.01,93.5 82.75,101.06l-226.9 402.4c-4.55,-1.42 -14.71,-5.5 -35.76,-17.37 -8.13,-4.58 -15.11,-8.78 -18.53,-10.84 -53.58,-92.81 -141.95,-170.58 -286.11,-251.87 -159.9,-90.16 -243.59,-108.16 -358.83,-111.81zm-30.7 6.7c0,0 0,0 0.01,0.01 12.59,7.09 22.9,12.39 23.33,12.62 1.37,0.7 2.86,1.09 4.39,1.13 113.02,3.39 194.47,20.59 351.71,109.25 141.92,80.02 228.18,156.02 279.67,246.43 0.85,1.49 2.06,2.75 3.52,3.65 0.38,0.24 9.63,5.96 21.43,12.62 40.21,22.68 54.48,26.01 61.1,14.29l229.54 -407.12c33.01,-58.53 -191.83,-213.33 -351.01,-303.08 -159.18,-89.75 -407.98,-202.02 -440.99,-143.49l-229.55 407.11c-6.59,11.68 7.98,21.94 15.8,27.47 7.56,5.33 18,11.75 31.04,19.11z"/>
    <path class="fil1" d="M2809.73 1212.96c-16.2,-7.69 -31.61,-16.93 -46.79,-26.43 -1.74,-5.14 -6.7,-12.62 -9.9,-18.24 -3.77,-6.67 -7.71,-13.23 -11.9,-19.66 -8.07,-12.3 -16.64,-24.2 -25.76,-35.76 -19.3,-24.47 -41.29,-46.87 -64.56,-67.57 -26.05,-23.16 -54.03,-43.97 -82.78,-63.63 -49.14,-33.6 -101.47,-63.04 -154.86,-89.27 -42.05,-20.64 -85.69,-39.05 -131.21,-50.45 -52.6,-13.16 -105.25,-16.82 -159.35,-16.44 -6.49,-4.41 -16.72,-8.67 -24.5,-12.96 -8.76,-4.84 -17.38,-9.93 -25.76,-15.43 14.3,9.87 29.41,18.52 44.67,26.81 4.1,2.22 5.96,2.93 10.56,3.01 4.65,0.08 9.3,0.18 13.94,0.31 8.62,0.24 17.23,0.58 25.82,1.08 18.86,1.13 37.64,2.82 56.33,5.53 59.25,8.58 115.32,29.19 169.42,54.16 57.89,26.72 113.73,59.22 167.06,94.1 32.36,21.16 63.44,44.62 92.41,70.22 26.03,23.02 50.09,48.23 71.17,75.9 10.19,13.39 19.72,27.29 28.34,41.75 3.4,5.72 6.52,14.8 11.94,18.62 6.95,4.9 15.04,8.81 22.52,12.85 7.61,4.1 15.32,7.99 23.21,11.52 -16.2,-7.69 -16.38,-7.32 0,0z"/>
    <polygon class="fil0" points="2205.53,517.18 2979.63,953.66 3244.89,483.23 2470.79,46.74 "/>
    <path class="fil1" d="M1873.89 2019.61l0 0c41.6,23.47 94.34,8.76 117.79,-32.84l630.15 -1127.16 -150.65 -84.94 -630.14 1127.16c-23.46,41.59 -8.74,94.33 32.85,117.78z"/>
    <path class="fil1" d="M1543.32 2581.46c142.54,80.38 323.26,29.99 403.63,-112.55 80.38,-142.55 29.98,-323.27 -112.56,-403.64 -142.55,-80.38 -323.26,-29.98 -403.63,112.57 -80.37,142.55 -29.98,323.26 112.56,403.62zm-39.01 -627.89c70.66,6.04 219.99,38.63 306.14,-114.19l604.49 -1081.67 250.5 141.24 -604.51 1081.67c-87.86,155.82 -67.63,245.3 -30.26,299.41 11.26,16.3 12.37,37.54 2.64,54.8l-129.67 365.87c-7.64,13.54 -24.81,18.33 -38.36,10.68l-80.66 -45.46c-87.8,27.67 -186.39,20.38 -272.92,-28.42 -86.52,-48.78 -143.77,-129.37 -165.53,-218.81l-80.66 -45.48c-13.54,-7.63 -18.33,-24.8 -10.7,-38.35l200.32 -355.26c9.89,-17.54 29.07,-27.76 49.16,-26.03z"/>
    <path class="fil1" d="M1789.27 2703.93l56.43 31.81c4.06,2.3 9.2,0.85 11.49,-3.2l11 -19.51 -71.12 -40.11 -11.01 19.51c-2.28,4.07 -0.86,9.21 3.21,11.5z"/>
    <path class="fil0" d="M1849.16 2719.22l-4.89 8.68 -53.1 -29.56c-0.16,-0.09 -0.21,-0.29 -0.13,-0.45l4.89 -8.68 53.23 30.01zm-68.08 -2.98l52.65 29.69c6.74,3.8 14.71,3.44 20.93,-0.25 3.04,-1.8 5.66,-4.4 7.51,-7.69l14.98 -26.56 -89.03 -50.2 -14.98 26.58c-5.65,10.02 -2.1,22.78 7.93,28.44z"/>
    <path class="fil0" d="M1368.11 2133.98l87.04 -154.39c9.9,-17.55 29.07,-27.76 49.16,-26.03 32.48,2.77 81.57,11.12 133.51,4.52 2.29,8.93 29.21,9.74 -10.24,19.95 -67.39,17.46 -123.69,1.27 -142.15,19.61 -15.12,15.04 -58.38,94.09 -90.66,151.35l-26.66 -15.02z"/>
    <path class="fil0" d="M2523.75 804.32l98.07 55.29 -115.18 204.28c-47.57,-51.45 -95.74,-62.13 -125.2,-11.59 -29.47,50.55 -500.52,879.89 -500.52,879.89 -18.24,32.34 -0.64,70.64 21.96,97.45 -9.91,-1.56 -19.74,-4.79 -29,-10.02 -41.6,-23.45 -56.31,-76.18 -32.85,-117.78l630.14 -1127.16 52.58 29.65z"/>
    <polygon class="fil0" points="1419.05,2134.69 1512.49,1984.66 1499.07,1977.09 "/>
    <polygon class="fil0" points="1779.45,2662.98 1788.39,2668.03 1826.66,2600.16 1817.71,2595.12 "/>
    <path class="fil0" d="M1961.67 2050.45c19.42,-11.04 37.12,-36.02 70.36,-94.98 106.72,-189.27 583.48,-1084.67 583.48,-1084.67l49.93 28.15 -635.95 1137.43 -9.2 -5.19c-5.32,47.27 -44.45,139.48 -19.31,190.99 0,0 7.97,31.1 2.14,54.6 -10.78,-72.43 -73.05,-162.37 -156.7,-225.11 77.11,30.17 92.47,11.73 115.25,-1.22z"/>
    <polygon class="fil0" points="2401.39,819.93 2306.67,993.38 2418.88,830.71 "/>
    <path class="fil0" d="M1925.81 2016.46c58.62,0.63 375.79,-642.11 455.15,-782.84 0,0 -376.27,669.57 -403.18,719.27 -18.48,34.18 -51.97,63.57 -51.97,63.57z"/>
    <path class="fil0" d="M2300.99 1029.77c0,0 -3.86,5.94 -10.41,16.45 -6.45,10.55 -15.94,25.48 -26.86,43.67 -10.99,18.15 -260,468.23 -273.32,491.14 -6.65,11.48 -13.49,23.33 -20.46,35.37 -6.88,12.09 -13.88,24.37 -20.88,36.66 -6.9,12.34 -13.79,24.68 -20.57,36.82 -6.84,12.12 -13.29,24.2 -19.68,35.81 -12.71,23.26 -24.38,45.08 -34.22,63.87 -9.91,18.75 -17.77,34.61 -23.47,45.6 -5.6,11.04 -8.68,17.41 -8.68,17.41 0,0 3.88,-5.92 10.43,-16.43 6.46,-10.56 15.94,-25.5 26.86,-43.68 11,-18.14 23.62,-39.4 36.95,-62.33 6.62,-11.47 13.62,-23.26 20.44,-35.37 6.89,-12.08 13.89,-24.37 20.88,-36.66 6.88,-12.34 13.77,-24.68 20.57,-36.83 6.7,-12.19 13.3,-24.19 19.68,-35.81 12.7,-23.26 260.75,-473.89 270.58,-492.69 9.9,-18.76 17.78,-34.6 23.47,-45.59 5.6,-11.04 8.68,-17.42 8.68,-17.42z"/>
    <path class="fil0" d="M2504.26 1038.24c-36.97,63.19 -102.21,172.35 -102.21,172.35 0,0 36.68,-65.09 3.34,-92.73 -11.31,-9.38 -29.56,-8.8 -28.9,-30.55 0.89,-30.88 34.84,-62.91 48.73,-55.07 31.22,17.6 -8.2,39.37 16.73,50.47 19.43,8.65 62.31,-44.47 62.31,-44.47z"/>
    <path class="fil0" d="M2402.61 1176.91c-1.33,-27.28 -27.22,-54.19 -65.13,-49.02 -37.93,5.18 -32.12,52.24 -27.27,46.02 7.88,-10.1 16.1,-17.2 25.31,-20.08 44.2,-13.83 67.09,23.08 67.09,23.08z"/>
    <path class="fil0" d="M2025.48 1827.93c-19.03,-10.73 -57.78,-46.58 -40.5,-94.93 13.18,-36.95 46.29,-63.09 46.29,-63.09 0,0 -36.4,51.58 -32.53,103.89 2.47,33.51 26.74,54.14 26.74,54.14z"/>
    <path class="fil0" d="M2070.25 1748.51c-11.49,20.38 -16.81,39.17 -11.85,41.96 4.94,2.78 13.5,-14.16 25.01,-34.56 11.49,-20.38 21.56,-36.49 16.61,-39.26 -4.95,-2.8 -18.27,11.47 -29.77,31.87z"/>
    <path class="fil0" d="M2103.77 1695.83c-1.59,2.85 -0.58,6.44 2.26,8.04 2.84,1.61 6.43,0.6 8.04,-2.24 1.6,-2.84 0.58,-6.44 -2.24,-8.04 -2.84,-1.6 -6.44,-0.59 -8.06,2.24z"/>
    <path class="fil1" d="M2593.83 867.42l-620.06 1109.27c-17.86,31.66 -58.13,42.9 -89.81,25.03 -31.65,-17.84 -42.89,-58.13 -25.04,-89.8l620.06 -1109.25 114.85 64.74zm-730.04 1170.1c51.41,28.98 116.8,10.75 145.79,-40.65l640.23 -1145.06 -186.44 -105.12 -640.23 1145.05c-28.99,51.41 -10.75,116.8 40.66,145.79z"/>
    <polygon class="fil0" points="1352.97,2160.81 1419.28,2198.21 1429.37,2180.31 1363.06,2142.92 "/>
    <path class="fil0" d="M2620.56 985.62c-17.81,-12.01 -53.49,-30.66 -53.49,-30.66l-9.74 14.67 -149.42 -82.78 9.25 -16.39 -49.92 -28.15 32.43 -53.28 251.72 141.92 -30.83 54.69z"/>
    <path class="fil0" d="M1962 2281.87c0,0 -0.25,-4.04 -0.94,-11.05 -0.53,-3.5 -0.91,-7.83 -1.89,-12.67 -0.84,-4.87 -1.99,-10.35 -3.5,-16.25 -3,-11.82 -7.53,-25.39 -13.89,-39.34 -3.22,-6.96 -6.77,-14.05 -10.81,-21.02 -4.15,-6.9 -8.53,-13.83 -13.28,-20.49 -4.86,-6.58 -9.92,-13.02 -15.27,-19.05 -2.61,-3.06 -5.32,-5.99 -8.13,-8.78 -2.73,-2.84 -5.54,-5.6 -8.27,-8.16 -11.22,-10.55 -22.6,-19.16 -32.88,-25.78 -10.21,-6.69 -19.26,-11.3 -25.65,-14.34 -6.42,-2.99 -10.19,-4.43 -10.19,-4.43 0,0 3.34,2.27 9.17,6.2 5.78,4 13.92,9.85 23.21,17.35 4.63,3.76 9.53,7.97 14.61,12.52 5.03,4.56 10.2,9.65 15.33,14.87 2.65,2.72 5.19,5.46 7.7,8.32 2.57,2.82 5.08,5.74 7.59,8.71 5.08,5.88 9.85,12.16 14.45,18.57 4.68,6.34 9,12.95 13.1,19.55 1.96,3.35 3.9,6.67 5.84,9.96 1.8,3.37 3.71,6.61 5.35,9.93 3.33,6.62 6.5,13.06 9.2,19.32 2.71,6.26 5.09,12.25 7.21,17.83 2.01,5.62 3.84,10.79 5.31,15.44 1.53,4.63 2.63,8.72 3.68,12.08 1.88,6.82 2.95,10.71 2.95,10.71z"/>
    <path class="fil0" d="M1808.9 2019.83c-48.39,-28.08 -114.24,-39.45 -166.55,-15.78 28.54,-3.18 56.16,-4.19 84.77,-0.78 27.8,3.29 54.52,10.59 81.78,16.56z"/>
    <path class="fil0" d="M1493.2 2579.72c-19.21,-20.23 -39.29,-39.32 -56.5,-61.39 -17.72,-22.73 -31.17,-46.88 -43.2,-72.96 6.86,57 50.6,107.5 99.69,134.35z"/>
    <path class="fil0" d="M2651.44 902.85l-599.44 1072.71c-83.47,148.05 -75.63,264.51 -33,323.38 3.85,5.32 7.46,10.29 10.66,14.92 9.14,13.23 9.95,30.06 2.13,43.92l-152.53 337.42c-4.84,8.59 -15.77,11.65 -24.34,6.8l-69.11 -47.24 -4.26 1.34c-89.31,28.15 -183.33,18.37 -264.78,-27.54 -81.42,-45.92 -138.45,-121.31 -160.59,-212.31l-1.06 -4.33 -84.55 -47.67c-8.58,-4.83 -11.63,-15.76 -6.79,-24.35l200.32 -355.26c7.91,-14.03 23.35,-22.22 39.33,-20.85 6.4,0.56 13.44,1.32 21.06,2.15 74.55,8.11 213.32,23.21 294.92,-121.52l599.45 -1072.71 232.58 131.14zm-1144.76 1743.6c83.89,47.31 181.94,62.07 274.2,34.28l63.93 39.17c18.46,10.41 41.94,3.87 52.34,-14.59l152.54 -337.42c11.71,-20.77 10.51,-45.94 -3.13,-65.69 -3.29,-4.75 -6.98,-9.85 -10.93,-15.29 -39.74,-54.89 -42.74,-164.68 34.26,-301.24l609.53 -1090.62 -268.37 -151.33 -609.53 1090.62c-74.96,132.93 -200.08,119.32 -274.82,111.18 -7.77,-0.85 -14.98,-1.63 -21.52,-2.19 -23.97,-2.04 -47.13,10.21 -58.97,31.23l-200.31 355.27c-10.4,18.45 -3.86,41.93 14.59,52.34l76.82 43.31c23.97,93.33 85.5,173.7 169.38,220.99z"/>
    <path class="fil0" d="M2607.83 863.52l-625.1 1118.21c-20.64,36.59 -67.2,49.58 -103.8,28.94 -36.6,-20.63 -49.59,-67.2 -28.95,-103.79l625.1 -1118.21 132.75 74.86zm-739 1165.06c46.47,26.2 105.6,9.72 131.79,-36.76l635.19 -1136.11 -168.54 -95.03 -635.2 1136.12c-26.2,46.47 -9.71,105.58 36.75,131.78z"/>
    <path class="fil0" d="M2038.11 1851.27c-31.56,10.22 -77.63,-63.67 -50.46,-122.3 14.36,-27.05 -69.1,122.51 -65.3,115.79 0,0 27.58,0.53 44.16,35.44 15.84,33.33 17.43,67.12 -4.29,105.69 -21.74,38.54 75.89,-134.61 75.89,-134.61z"/>
    <path class="fil1" d="M2713.21 521.46c213.76,120.54 369.17,249.96 347.11,289.1l-229.56 407.09c-4.87,8.65 -37.62,-33.28 -55.14,-46 -3.29,-92.29 -102.81,-206.21 -262.11,-296.02 -159.3,-89.83 -306.33,-116.85 -387.01,-71.89 -28.39,-10.98 -74.73,-13.9 -69.84,-22.55l229.55 -407.1c22.05,-39.13 213.24,26.86 427,147.38z"/>
    <path class="fil1" d="M2912.16 168.63c213.76,120.54 369.17,249.96 347.1,289.09l-68.7 121.83c22.07,-39.13 -133.34,-168.56 -347.1,-289.08 -213.76,-120.53 -404.94,-186.52 -427,-147.4l68.7 -121.82c22.07,-39.14 213.24,26.86 426.99,147.38z"/>
    <path class="fil1" d="M2770.88 419.21c213.76,120.53 369.17,249.96 347.1,289.08l-42.52 75.41c22.07,-39.13 -133.34,-168.57 -347.1,-289.09 -213.77,-120.54 -404.94,-186.52 -427,-147.39l42.52 -75.4c22.07,-39.14 213.24,26.86 427,147.39z"/>
    <path class="fil1" d="M2828.54 316.96c213.76,120.53 369.16,249.95 347.11,289.08l-42.53 75.42c22.07,-39.13 -133.34,-168.56 -347.1,-289.09 -213.77,-120.54 -404.93,-186.52 -427,-147.39l42.52 -75.41c22.08,-39.12 213.24,26.87 427.01,147.4z"/>
    <path class="fil0" d="M2377.96 281.11c8.2,0.31 19.51,1.66 34.6,4.89l12.02 2.2c0,0 -12.58,-1.19 -17.24,7.06 -4.64,8.25 -6.7,11.88 -11,19.51 -4.3,7.61 7.45,12.96 7.45,12.96l-12.7 -3.66c-12.63,-3.08 -23.79,-5.25 -33.61,-6.61l20.49 -36.34z"/>
    <path class="fil0" d="M2506.19 119.92c-12.62,-3.09 -23.79,-5.25 -33.61,-6.63l46.66 -82.75c8.2,0.3 19.51,1.67 34.6,4.89l17.71 4.31c0,0 -18.44,-3.03 -24.64,7.97 -4.62,8.17 -23.67,41.96 -33.75,59.86 -6.2,10.99 6.1,15.66 6.1,15.66l-13.07 -3.3z"/>
    <path class="fil0" d="M2489.58 308.87c0.7,0.24 1.37,0.48 2.09,0.75 21.2,7.65 43.81,16.67 67.4,26.78l-22.21 39.4c-24.19,-10.44 -47.42,-19.77 -69.34,-27.8l-9.95 -3.59c0,0 10.43,2.75 16.02,-7.19 5.61,-9.92 3.24,-5.73 8.91,-15.79 5.69,-10.07 -3.79,-16.16 -3.79,-16.16l10.87 3.6z"/>
    <path class="fil0" d="M2470.21 183.73l11.99 2.26c0,0 -12.53,-1.3 -17.1,6.82 -3.01,5.34 -7.1,12.57 -10.93,19.4 -4.49,7.96 7.2,12.72 7.2,12.72l-12.61 -3.13c-12.63,-3.09 -23.79,-5.25 -33.62,-6.62l20.48 -36.3c8.21,0.29 19.52,1.65 34.6,4.86z"/>
    <path class="fil0" d="M2700.36 85.83l-48.39 85.81c-24.19,-10.44 -47.41,-19.76 -69.35,-27.79l-15.77 -4.92c0,0 16.97,2.81 24.01,-9.69 7.04,-12.5 28.31,-50.21 32.45,-57.55 6.02,-10.68 -9.44,-19.89 -9.44,-19.89l16.99 6.49c0.71,0.25 1.39,0.49 2.09,0.74 21.21,7.67 43.82,16.68 67.41,26.79z"/>
    <path class="fil0" d="M3181.55 377.22l7.63 7.08c0,0 -7.95,-6.51 -14.48,5.1 -4.72,8.35 -23.95,42.45 -34.38,60.96 -6.24,11.05 2.43,20.19 2.43,20.19l-9.26 -8.09c-4.7,-4.12 -9.66,-8.33 -14.89,-12.71 -33.62,-27.99 -74.33,-57.91 -119.84,-88.28l48.45 -85.92c38.55,25.82 73.52,51.26 103.22,75.26 11.78,9.54 22.08,18.32 31.11,26.41z"/>
    <path class="fil0" d="M3012.93 253.13l-48.48 85.98c-23.45,-14.95 -47.81,-29.93 -73.04,-44.75l48.5 -86.03c25.19,14.82 49.62,29.82 73.03,44.8z"/>
    <path class="fil0" d="M3069.85 656.39c14.33,15.2 22.26,26.3 26.23,33.68l-20.03 35.48c-7.05,-9.22 -16.13,-19.52 -27.67,-31.08l21.46 -38.08z"/>
    <path class="fil0" d="M2929.31 401.46l-22.31 39.56c-23.44,-14.98 -47.82,-29.95 -73.06,-44.77l22.33 -39.6c25.21,14.81 49.61,29.81 73.03,44.81z"/>
    <path class="fil0" d="M2616.74 234.13l-22.22 39.39c-24.2,-10.43 -47.42,-19.75 -69.35,-27.79l-11.64 -3.7c0,0 13.51,0.38 17.32,-6.35 3.43,-6.1 6.99,-12.41 9.29,-16.48 5.81,-10.3 -7.89,-18.09 -7.89,-18.09l15 5.49c0.7,0.26 1.38,0.5 2.08,0.74 21.2,7.67 43.82,16.69 67.42,26.78z"/>
    <path class="fil0" d="M3097.92 525.55l8.73 8.06c0,0 -9.85,-6.06 -13.81,0.97 -2.23,3.93 -7.22,12.78 -11.2,19.82 -5.14,9.14 4.32,19.38 4.32,19.38l-9.91 -9.45c-4.71,-4.11 -9.66,-8.34 -14.91,-12.7 -33.6,-28 -74.31,-57.92 -119.81,-88.28l22.26 -39.48c38.54,25.81 73.52,51.26 103.22,75.27 11.78,9.53 22.08,18.32 31.11,26.41z"/>
    <path class="fil0" d="M3133.73 623.3c-7.07,-9.23 -16.15,-19.53 -27.69,-31.09l21.48 -38.09c14.34,15.2 22.24,26.31 26.22,33.69l-20.01 35.49z"/>
    <path class="fil0" d="M2883.66 565.61l22.27 -39.48c38.54,25.81 73.52,51.25 103.22,75.26 11.78,9.54 22.08,18.32 31.11,26.41l8.88 7.78c0,0 -9.72,-6.29 -13.8,0.92 -3.05,5.42 -7.03,12.46 -10.4,18.46 -6.55,11.63 1.05,18.41 1.05,18.41l-7.59 -6.79c-4.72,-4.12 -9.67,-8.34 -14.91,-12.69 -33.61,-28 -74.31,-57.94 -119.83,-88.29z"/>
    <path class="fil0" d="M3191.17 521.4c-7.05,-9.22 -16.13,-19.52 -27.69,-31.08l47.66 -84.51c14.32,15.2 22.25,26.31 26.22,33.68l-46.19 81.91z"/>
    <path class="fil0" d="M2871.64 503.7l-22.31 39.57c-23.42,-14.96 -47.79,-29.94 -73.03,-44.76l22.33 -39.6c25.18,14.82 49.6,29.81 73.01,44.8z"/>
    <path class="fil0" d="M2795.53 1161.41c-0.47,-4.85 -1.22,-9.77 -2.15,-14.69l218.82 -388.08c14.33,15.21 22.24,26.31 26.21,33.69l-220.55 391.15c-1.12,-1.14 -2.22,-2.28 -3.22,-3.3 -6.68,-6.83 -13.11,-13.42 -19.12,-18.77z"/>
    <path class="fil0" d="M2813.98 605.98l-182.24 323.21c-21.76,-16.86 -45.26,-33.33 -70.58,-49.15l179.8 -318.89c25.2,14.82 49.6,29.84 73.02,44.82z"/>
    <path class="fil0" d="M2848.26 628.4c38.55,25.8 73.55,51.25 103.23,75.27 11.78,9.53 22.1,18.31 31.11,26.39 0,0 5.69,5.2 10.8,10.49 0,0 -11.72,-8.83 -18.45,3.1 -6.04,10.71 -154.84,274.6 -186.5,330.74 -11.24,19.94 -3.82,39.4 -3.82,39.4 -3.79,-9.79 -8.09,-18.26 -8.09,-18.26 -21.58,-46.4 -60.26,-94.34 -112.69,-140.06l184.42 -327.06z"/>
    <path class="fil0" d="M2431.92 411.13c0.7,0.26 1.37,0.48 2.09,0.75 21.2,7.67 43.8,16.68 67.4,26.79l-188.33 333.98c-27.82,-6.24 -54.28,-9.83 -78.98,-10.68l-22.68 0.32c0,0 24.64,-3.8 35.66,-23.37 40.6,-71.97 162.86,-288.83 172.58,-306.06 11.67,-20.71 -6.51,-28.35 -6.51,-28.35l18.76 6.62z"/>
    <path class="fil0" d="M2099.49 774.96l220.81 -391.59c8.19,0.32 19.51,1.68 34.59,4.89l15.76 4.08c0,0 -16.38,-2.98 -23.79,10.16 -6.27,11.14 -151.22,268.2 -197.21,349.77 -9.89,17.53 19.42,13.9 19.42,13.9 0,0 -23.44,4.98 -33.2,10.51 -7.39,4.2 -7.42,3.04 -10.97,4.76 -8.26,-2.59 -16.99,-4.66 -25.4,-6.49z"/>
    <path class="fil1" d="M2489.52 629.69c-38.45,68.17 -14.35,154.6 53.83,193.04 68.18,38.44 154.6,14.35 193.04,-53.83 38.45,-68.18 14.34,-154.6 -53.84,-193.05 -68.16,-38.45 -154.61,-14.34 -193.03,53.84z"/>
    <path class="fil0" d="M2498.87 634.98c-35.51,63 -13.24,142.86 49.76,178.38 63,35.53 142.86,13.24 178.38,-49.75 35.53,-63 13.25,-142.86 -49.74,-178.38 -63,-35.52 -142.86,-13.25 -178.4,49.75z"/>
    <path class="fil1" d="M2503.59 697.71c-3.24,63.47 51.92,117.93 114.89,116.32 31.51,-0.81 61.75,-15.61 81.82,-39.89 20.81,-25.17 29.4,-59.07 23.58,-91.15 -5.86,-32.24 -25.69,-61.46 -54.42,-77.55 47.7,34.06 63.27,102.17 30.85,151.97 -16.27,25.01 -43.33,42.25 -72.98,46.03 -30.2,3.86 -61.72,-5.8 -84.58,-25.95 -22.89,-20.2 -37.38,-49.24 -39.15,-79.78z"/>
    <path class="fil0" d="M2942.43 209.75c-16.02,-9.83 -29.73,-17.25 -29.73,-17.25 0,0 27.51,15.29 12.85,41.3 -14.66,25.99 23.05,-6.91 23.05,-6.91l-6.16 -17.15z"/>
    <path class="fil0" d="M2727.22 97.03c-12.14,-5.4 -32.27,-13.51 -32.27,-13.51 0,0 -13.86,34.31 -5.21,21.13 10.38,-15.76 37.48,-7.62 37.48,-7.62z"/>
    <path class="fil0" d="M2858.78 358.1c-16.03,-9.82 -29.94,-16.87 -29.94,-16.87 0,0 27.51,15.28 12.84,41.29 -14.67,26.01 23.06,-6.91 23.06,-6.91l-5.96 -17.51z"/>
    <path class="fil0" d="M2643.35 245.76c-12.13,-5.4 -32.04,-13.93 -32.04,-13.93 0,0 -14.09,34.74 -5.42,21.54 10.36,-15.76 37.46,-7.61 37.46,-7.61z"/>
    <path class="fil0" d="M2800.9 460.73c-16.01,-9.83 -29.71,-17.23 -29.71,-17.23 0,0 27.49,15.28 12.83,41.28 -14.65,26.02 23.06,-6.9 23.06,-6.9l-6.18 -17.15z"/>
    <path class="fil0" d="M2585.7 348.01c-12.14,-5.4 -32.04,-13.92 -32.04,-13.92 0,0 -14.1,34.72 -5.43,21.55 10.37,-15.76 37.48,-7.62 37.48,-7.62z"/>
    <path class="fil0" d="M2744.46 563.14c-16.03,-9.83 -30.93,-17.38 -30.93,-17.38 0,0 27.5,15.28 12.84,41.29 -14.67,26 23.06,-6.9 23.06,-6.9l-4.97 -17.01z"/>
    <path class="fil0" d="M2528.04 450.28c-12.14,-5.41 -32.04,-13.94 -32.04,-13.94 0,0 -14.09,34.74 -5.43,21.56 10.36,-15.78 37.47,-7.62 37.47,-7.62z"/>
    <path class="fil0" d="M2891.41 294.36c-15.54,-9.07 -27.42,-15.45 -27.42,-15.45 0,0 25.36,13 39.74,-6.41 14.39,-19.42 10.97,14.53 10.97,14.53l-23.3 7.34z"/>
    <path class="fil0" d="M2651.97 171.64c15.78,6.75 26.96,13.05 26.96,13.05 0,0 -23.99,-12.2 -14.83,-34.55 9.16,-22.35 -20.15,-3.48 -20.15,-3.48l8.02 24.99z"/>
    <path class="fil0" d="M2833.95 396.25c-15.52,-9.07 -27.4,-15.46 -27.4,-15.46 0,0 25.35,13 39.73,-6.4 14.38,-19.42 10.97,14.53 10.97,14.53l-23.31 7.33z"/>
    <path class="fil0" d="M2594.52 273.52c15.79,6.76 26.96,13.06 26.96,13.06 0,0 -23.99,-12.21 -14.83,-34.56 9.17,-22.34 -20.15,-3.48 -20.15,-3.48l8.02 24.97z"/>
    <path class="fil0" d="M2776.23 498.61c-15.53,-9.08 -27.41,-15.45 -27.41,-15.45 0,0 25.36,12.99 39.74,-6.42 14.39,-19.41 10.97,14.54 10.97,14.54l-23.3 7.33z"/>
    <path class="fil0" d="M2536.8 375.88c15.78,6.76 26.95,13.05 26.95,13.05 0,0 -23.98,-12.2 -14.81,-34.56 9.16,-22.35 -20.15,-3.49 -20.15,-3.49l8.02 24.99z"/>
    <path class="fil0" d="M2561.16 880.04c-15.53,-9.06 -27.12,-15.97 -27.12,-15.97 0,0 25.35,13 39.73,-6.42 14.4,-19.4 10.98,14.54 10.98,14.54l-23.59 7.85z"/>
    <path class="fil0" d="M2313.09 772.64c16.99,4.09 29.58,8.42 29.58,8.42 0,0 -26.35,-8.03 -17.19,-30.38 9.15,-22.35 -20.14,-3.47 -20.14,-3.47l7.75 25.44z"/>
    <path class="fil0" d="M2538.69 820.65c-9.93,-7.21 -19.38,-14.55 -27.83,-23.51 -10.05,-10.63 -18.24,-22.92 -24.68,-36.02 -12.92,-26.3 -17.1,-56.49 -12.33,-85.32 9.84,-59.58 58.54,-107.13 118.25,-115.85 16.05,-2.34 32.76,-2.49 48.74,0.75 13.54,2.72 26.05,7.44 38.69,12.9 -25.97,-14.83 -54.53,-23.87 -84.84,-21.07 -32.55,3.01 -63.63,15.96 -87.43,38.68 -41.72,39.79 -54.85,100.22 -35.62,154.05 6.2,17.32 16.47,33.01 28.81,46.51 11.01,12.05 24.15,20.88 38.23,28.88z"/>
    <path class="fil0" d="M2355.46 408.15c-55.29,88.43 -106.57,179.39 -155.73,271.33 -10.98,20.56 -21.72,41.22 -32.24,62.02 55.31,-88.41 106.55,-179.38 155.72,-271.32 10.99,-20.56 21.73,-41.24 32.25,-62.04z"/>
    <path class="fil0" d="M2416.19 298.05c-6.98,4.86 -12.42,14.57 -12.99,23.04 6.99,-4.84 12.4,-14.57 12.99,-23.04z"/>
    <path class="fil0" d="M2474.86 193.33c-6.98,4.87 -12.41,14.57 -12.99,23.05 6.98,-4.85 12.4,-14.58 12.99,-23.05z"/>
    <path class="fil0" d="M2560.22 44.14c-8.52,10.64 -15.68,22.58 -22.36,34.43 -6.67,11.85 -13.27,24.13 -17.89,36.96 8.55,-10.63 15.69,-22.58 22.36,-34.42 6.67,-11.85 13.24,-24.14 17.88,-36.97z"/>
    <path class="fil0" d="M2537.48 473.98c-24.4,36.22 -46.54,74.03 -68.55,111.73 -26.21,44.88 -51.36,90.45 -75.28,136.61 -9.95,19.18 -19.88,38.47 -28.95,58.1 24.43,-36.19 46.56,-74.03 68.57,-111.72 26.19,-44.88 51.32,-90.46 75.25,-136.6 9.95,-19.19 19.87,-38.48 28.96,-58.1z"/>
    <path class="fil0" d="M2605.04 360.35c-6.99,4.85 -12.42,14.56 -12.99,23.04 6.99,-4.84 12.39,-14.58 12.99,-23.04z"/>
    <path class="fil0" d="M2660.69 261.64c-6.98,4.86 -12.43,14.57 -12.99,23.04 6.99,-4.85 12.39,-14.58 12.99,-23.04z"/>
    <path class="fil0" d="M2742.48 116.59c-9.28,8 -16.48,18.75 -22.47,29.35 -5.97,10.61 -11.45,22.32 -13.5,34.42 9.31,-8 16.5,-18.76 22.46,-29.36 5.97,-10.62 11.44,-22.33 13.51,-34.4z"/>
    <path class="fil1" d="M2877.22 673.66c-49.7,78.54 -95.49,159.62 -139.04,241.68 -9.92,18.69 -19.62,37.49 -29.06,56.42 49.72,-78.54 95.46,-159.63 139.02,-241.69 9.93,-18.69 19.62,-37.48 29.07,-56.41z"/>
    <polygon class="fil1" points="2863.79,633.56 2790.11,772.09 2870.51,637.34 "/>
    <polygon class="fil1" points="2687.98,981.97 2761.66,843.44 2681.25,978.19 "/>
    <path class="fil1" d="M2937 560.55c-6.99,4.87 -12.42,14.58 -12.99,23.04 6.99,-4.84 12.39,-14.58 12.99,-23.04z"/>
    <path class="fil1" d="M2995.65 455.84c-6.97,4.85 -12.41,14.58 -12.98,23.03 7.01,-4.83 12.41,-14.57 12.98,-23.03z"/>
    <path class="fil1" d="M3078.99 521.2c-6.98,4.86 -12.42,14.58 -12.99,23.04 6.99,-4.84 12.39,-14.58 12.99,-23.04z"/>
    <path class="fil1" d="M3163.31 371.67c-8.65,10.76 -15.87,22.91 -22.64,34.91 -6.77,12.03 -13.39,24.46 -18.16,37.44 8.67,-10.76 15.87,-22.91 22.63,-34.9 6.77,-12.03 13.4,-24.47 18.17,-37.44z"/>
    <path class="fil1" d="M3020.63 624.68c-6.96,4.86 -12.41,14.57 -12.99,23.05 7,-4.86 12.41,-14.57 12.99,-23.05z"/>
    <path class="fil1" d="M3078.88 308.9c-8.52,10.64 -15.68,22.57 -22.35,34.42 -6.68,11.84 -13.27,24.14 -17.89,36.95 8.54,-10.62 15.68,-22.57 22.35,-34.43 6.66,-11.84 13.24,-24.14 17.88,-36.95z"/>
    <polygon class="fil1" points="2995.38,235.46 2956.95,321.91 3004.52,240.13 "/>
    <polygon class="fil1" points="2912.16,385.17 2897.02,426.06 2921.31,389.86 "/>
    <polygon class="fil1" points="2855.32,486 2840.18,526.88 2864.47,490.68 "/>
    <polygon class="fil1" points="2797.66,586.35 2761.64,668.08 2806.81,591.03 "/>
    <polygon class="fil0" points="2835.44,619.96 2693.05,880.32 2842.14,623.74 "/>
    <polygon class="fil0" points="2893.26,517.4 2882.89,543.63 2899.97,521.19 "/>
    <polygon class="fil0" points="2950.73,415.48 2940.36,441.71 2957.45,419.25 "/>
    <polygon class="fil0" points="3034.11,267.61 3003.71,329.36 3040.82,271.38 "/>
    <polygon class="fil0" points="3201.2,395.13 3169.96,458.35 3206.71,400.95 "/>
    <polygon class="fil0" points="3117.6,543.35 3108.6,567.19 3123.13,549.18 "/>
    <polygon class="fil0" points="3059.88,645.74 3050.86,669.58 3065.39,651.57 "/>
    <polygon class="fil0" points="3002.27,747.91 2817.74,1083.03 3007.77,753.74 "/>
    <polygon class="fil1" points="3221.05,442.7 3177.93,513.95 3182.4,516.47 "/>
    <polygon class="fil1" points="3141.23,584.25 3120.27,616.21 3124.74,618.73 "/>
    <polygon class="fil1" points="3082.28,688.82 3062.61,718.48 3067.08,721 "/>
    <polygon class="fil1" points="3009.39,818.1 2804.62,1176.01 2809.09,1178.53 "/>
    <polygon class="fil1" points="2447.72,408.37 2266.48,740.26 2456.67,413.43 "/>
    <polygon class="fil1" points="2505.2,306.45 2492.12,340.08 2514.15,311.49 "/>
    <polygon class="fil1" points="2561.88,205.93 2548.81,239.55 2570.83,210.97 "/>
    <polygon class="fil1" points="2644.08,60.13 2606.48,137.29 2653.03,65.19 "/>
    <path class="fil0" d="M2461.81 569.78c-33.37,52.72 -64.06,107.16 -93.32,162.24 -6.49,12.24 -12.84,24.54 -19,36.94 33.36,-52.71 64.02,-107.16 93.29,-162.24 6.49,-12.23 12.84,-24.54 19.03,-36.94z"/>
    <path class="fil0" d="M2904.45 189.8c-7.73,9.33 -14.18,19.91 -20.13,30.45 -5.93,10.55 -11.65,21.5 -15.63,32.97 7.74,-9.32 14.18,-19.9 20.11,-30.44 5.95,-10.55 11.65,-21.52 15.65,-32.98z"/>
    <path class="fil0" d="M2820.27 339.08c-7.99,6.57 -14.68,18.19 -16.05,28.48 8.01,-6.55 14.67,-18.2 16.05,-28.48z"/>
    <path class="fil0" d="M2762.84 440.97c-8.01,6.55 -14.69,18.18 -16.05,28.46 8.01,-6.55 14.66,-18.18 16.05,-28.46z"/>
    <path class="fil0" d="M2704.43 544.54c-7.99,6.57 -14.68,18.19 -16.05,28.46 8.01,-6.54 14.66,-18.18 16.05,-28.46z"/>
    <path class="fil0" d="M2546.32 824.96c0,0 -1.74,1.36 -3.79,3.73 -2.07,2.34 -4.45,5.69 -6.46,9.23 -2,3.58 -3.64,7.33 -4.58,10.33 -0.98,2.97 -1.22,5.17 -1.22,5.17 0,0 1.75,-1.35 3.79,-3.73 2.07,-2.34 4.44,-5.68 6.47,-9.23 1.99,-3.57 3.61,-7.35 4.56,-10.33 0.96,-2.97 1.22,-5.17 1.22,-5.17z"/>
    <polygon class="fil1" points="2407.42,566.15 2289.03,770.87 2293.5,773.4 "/>
    <polygon class="fil1" points="2533.57,342.42 2514.48,371.02 2518.96,373.55 "/>
    <polygon class="fil1" points="2590.58,241.31 2571.5,269.92 2575.97,272.44 "/>
    <polygon class="fil1" points="2672.96,95.2 2629.8,166.53 2634.28,169.05 "/>
    <path class="fil0" d="M2330.55 568.03c-19.02,26.73 -35.65,55.38 -51.76,83.95 -16.1,28.54 -32.03,57.6 -45.04,87.73 19.03,-26.72 35.65,-55.39 51.76,-83.96 16.09,-28.56 32.01,-57.61 45.04,-87.72z"/>
    <polygon class="fil1" points="3032.72,345.71 3068.71,287.12 3064.23,284.6 "/>
    <path class="fil0" d="M2717.22 603.27c-3.98,-4.14 -10.39,-10.23 -12.26,-11.79 8.74,4.6 14.15,8.51 18.24,1.16 4.08,-7.35 5.73,5.85 5.73,5.85l-11.72 4.77z"/>
    <path class="fil0" d="M2584.74 838.21c0,0 -16.37,-3.97 -23.52,-6.95 8.39,4.4 21.09,10.28 16.53,19.34 -4.54,9.05 12.41,-6.64 12.41,-6.64l-5.43 -5.75z"/>
    <path class="fil0" d="M2708.17 530.41c102.86,58.02 195.35,119.81 260.46,174.03 75.2,62.63 87.01,93.5 82.75,101.06l-225.49 399.92c-5.26,-4.4 -12.25,-11.56 -18.61,-18.06 -7.41,-7.6 -15.04,-15.39 -21.64,-20.91 -6.59,-95.89 -108.3,-210.26 -267.07,-299.79 -161.08,-90.81 -307.35,-118.32 -392.88,-74.16 -11.62,-3.97 -24.96,-6.82 -36.89,-9.35 -6.64,-1.41 -13.88,-2.95 -18.97,-4.39l225.33 -399.65c4.27,-7.56 36.78,-13.44 129.31,18.5 80.08,27.63 180.83,74.79 283.7,132.79zm-654.14 264.19l0.01 0.01c6.18,3.48 16.91,5.75 30.48,8.64 12.77,2.71 27.22,5.78 38.28,10.07 2.84,1.1 6.04,0.87 8.71,-0.61 77.42,-43.13 221.85,-15.6 376.97,71.86 155.24,87.54 253.68,197.7 256.87,287.43 0.11,3.17 1.66,6.09 4.23,7.96 5.97,4.33 14.63,13.19 22.99,21.77 10.87,11.11 20.27,20.72 27.5,24.81 10.47,5.9 17.28,0.38 19.64,-3.83l229.54 -407.12c33.01,-58.53 -191.83,-213.33 -351.01,-303.08 -159.18,-89.75 -407.98,-202.02 -440.99,-143.49l-229.55 407.11c-2.22,3.94 -2.22,8.61 -0.01,12.49 1.36,2.39 3.42,4.34 6.33,5.98z"/>
    <path class="fil1" d="M2819.29 1209.51c-14.46,-13 -26.57,-28.74 -42.01,-40.64 0.08,0.17 0.17,0.31 0.25,0.48 -1.76,-15.03 -3.73,-29.42 -8.53,-43.81 -3.78,-11.36 -8.3,-22.5 -14.05,-33.01 -11.78,-21.49 -25.37,-41.64 -41.05,-60.43 -30.43,-36.45 -66.04,-68.02 -104.05,-96.35 -57.36,-42.76 -120.45,-79.22 -186.41,-107.03 -46.46,-19.61 -94.6,-35.87 -144.54,-43.72 -41.65,-6.55 -85.75,-8.26 -126.26,5.22 -8.77,2.91 -16.8,6.85 -25.2,10.69 0.18,-0.01 0.38,-0.03 0.57,-0.04 -20.04,-7.47 -41.44,-9.49 -61.87,-15.49 10.76,3.42 21.89,5.53 32.85,8.22 5.15,1.26 10.3,2.56 15.4,4.06 3.96,1.18 9.69,4.54 13.7,4.46 1.89,-0.04 4.86,-2.17 6.61,-2.98 2.19,-1 4.37,-2.02 6.6,-2.95 4.75,-2.02 9.65,-3.35 14.53,-4.95 5.54,-1.81 11.17,-2.85 16.87,-4 22.47,-4.56 45.6,-4.72 68.4,-3.24 55.69,3.61 111.79,20.59 162.97,41.83 68.79,28.53 135.98,64.22 196,108.51 40.34,29.78 78.56,62.21 111.28,100.43 17.12,20 33.25,41.88 44.65,65.69 5.65,11.78 11.39,24.2 14.62,36.94 2.47,9.77 4.07,19.35 5.31,29.34 0.56,4.48 4.06,5.72 7.39,8.61 4.4,3.82 8.57,7.92 12.75,12 7.65,7.48 15.11,15.19 23.22,22.18 -7.23,-6.5 -7.38,-6.35 0,0z"/>
    <path class="fil0" d="M2848.51 281.53c-132.94,-74.96 -328.38,-165.63 -408.44,-159.39l54.04 -95.85c4.27,-7.56 36.8,-13.44 129.32,18.5 80.08,27.63 180.83,74.81 283.69,132.8 102.86,58 195.36,119.8 260.45,174.02 75.22,62.64 87.02,93.51 82.74,101.07l-54.04 95.85c-36.08,-71.73 -214.82,-192.04 -347.76,-267zm-437.09 -129.51c4.94,2.78 11.21,1.04 14,-3.9 4.26,-7.58 36.79,-13.46 129.31,18.49 80.08,27.65 180.83,74.81 283.7,132.81 102.85,57.99 195.34,119.8 260.45,174 75.21,62.65 87.01,93.51 82.75,101.08 -2.8,4.95 -1.05,11.21 3.9,14 4.94,2.79 11.2,1.03 13.99,-3.9l68.7 -121.84c33.02,-58.54 -191.82,-213.33 -351,-303.08 -159.17,-89.75 -408,-202.03 -441,-143.48l-68.69 121.84c-2.8,4.94 -1.06,11.22 3.89,13.99z"/>
    <path class="fil0" d="M2733.4 485.67c-132.94,-74.96 -328.39,-165.63 -408.44,-159.38l27.87 -49.44c4.27,-7.56 36.79,-13.44 129.32,18.5 80.09,27.64 180.84,74.81 283.69,132.8 102.86,58 195.36,119.79 260.46,174.03 75.22,62.63 87.01,93.49 82.74,101.08l-27.87 49.41c-36.08,-71.73 -214.82,-192.06 -347.76,-267.01zm-437.09 -129.49c4.95,2.78 11.2,1.03 14.01,-3.9 4.26,-7.58 36.77,-13.45 129.31,18.49 80.08,27.64 180.82,74.81 283.69,132.8 102.86,57.99 195.36,119.8 260.45,174.02 75.21,62.64 87.02,93.51 82.74,101.08 -2.79,4.94 -1.03,11.21 3.91,13.99 4.94,2.79 11.21,1.04 13.99,-3.91l42.52 -75.4c33.01,-58.55 -191.82,-213.33 -351,-303.09 -159.18,-89.76 -408,-202.02 -441.01,-143.49l-42.52 75.41c-2.79,4.94 -1.05,11.21 3.9,14z"/>
    <path class="fil0" d="M2791.06 383.41c-132.93,-74.96 -328.39,-165.63 -408.44,-159.38l27.86 -49.43c4.27,-7.58 36.78,-13.45 129.31,18.49 80.08,27.64 180.82,74.81 283.7,132.81 102.86,57.99 195.36,119.79 260.45,174.01 75.22,62.64 87.02,93.51 82.75,101.08l-27.86 49.43c-36.09,-71.74 -214.84,-192.05 -347.77,-267zm-437.09 -129.49c4.95,2.78 11.2,1.03 14,-3.91 4.27,-7.56 36.79,-13.45 129.31,18.49 80.08,27.64 180.83,74.82 283.69,132.82 102.86,57.99 195.37,119.79 260.46,174 75.23,62.65 87.01,93.52 82.75,101.09 -2.78,4.93 -1.03,11.21 3.9,13.98 4.95,2.8 11.22,1.06 14,-3.9l42.53 -75.41c33,-58.56 -191.83,-213.34 -351.01,-303.08 -159.18,-89.75 -407.99,-202.04 -441,-143.48l-42.52 75.4c-2.79,4.94 -1.03,11.2 3.9,14z"/>
    <path class="fil1" d="M3177.56 584.25c0,0 -0.31,-0.8 -0.92,-2.35 -0.52,-1.59 -1.51,-3.84 -2.99,-6.71 -2.95,-5.75 -8.03,-13.79 -15.57,-23.19 -15.05,-18.82 -39.56,-43.26 -71.43,-69.51 -31.84,-26.3 -70.49,-55.16 -113.42,-83.79 -42.92,-28.67 -89.83,-57.54 -137.68,-84.75 -12.04,-6.66 -24.06,-13.31 -36.06,-19.94 -12.11,-6.43 -24.18,-12.82 -36.15,-19.17 -24.1,-12.4 -47.92,-24.37 -71.27,-35.37 -11.68,-5.5 -23.13,-10.95 -34.53,-15.87 -11.33,-5.11 -22.5,-9.87 -33.42,-14.43 -21.8,-9.2 -42.7,-17.16 -62.09,-24.27 -9.76,-3.36 -19.09,-6.65 -28.06,-9.52 -9.04,-2.66 -17.49,-5.51 -25.63,-7.59 -8.12,-2.12 -15.67,-4.3 -22.79,-5.71 -7.09,-1.6 -13.6,-3.06 -19.59,-3.89 -5.93,-1.02 -11.22,-1.86 -15.92,-2.13 -4.66,-0.34 -8.6,-0.98 -11.83,-0.77 -6.46,0.06 -9.89,0.12 -9.89,0.12 0,0 3.44,0.03 9.88,0.11 3.22,-0.14 7.15,0.58 11.79,1.02 4.66,0.39 9.93,1.35 15.82,2.51 5.94,0.96 12.39,2.56 19.43,4.31 7.06,1.56 14.54,3.92 22.59,6.22 16.02,4.77 33.85,10.97 53.19,18.03 19.26,7.32 40.01,15.53 61.63,24.99 10.83,4.68 21.93,9.57 33.14,14.81 11.29,5.12 22.74,10.51 34.35,16.08 23.24,11.06 46.97,23.11 70.95,35.59 11.91,6.38 23.92,12.8 35.98,19.27 11.93,6.67 23.94,13.36 35.93,20.06 47.86,26.97 94.79,55.57 137.73,83.98 42.93,28.4 82.04,56.43 114.06,82.33 32.06,25.83 57.24,49.34 72.6,67.83 7.72,9.2 12.96,17.09 16.02,22.76 1.54,2.81 2.59,5.06 3.16,6.62 0.63,1.54 0.96,2.34 0.96,2.34z"/>
    <path class="fil1" d="M3119.9 686.51c0,0 -0.3,-0.8 -0.9,-2.36 -0.54,-1.58 -1.52,-3.83 -3.02,-6.71 -2.93,-5.73 -8,-13.78 -15.57,-23.18 -15.04,-18.83 -39.53,-43.26 -71.42,-69.52 -31.84,-26.3 -70.49,-55.16 -113.43,-83.8 -42.92,-28.66 -89.83,-57.52 -137.66,-84.73 -12.04,-6.66 -24.08,-13.32 -36.07,-19.95 -12.12,-6.42 -24.18,-12.82 -36.16,-19.16 -24.08,-12.4 -47.92,-24.39 -71.25,-35.38 -11.67,-5.49 -23.13,-10.95 -34.54,-15.88 -11.31,-5.12 -22.5,-9.87 -33.42,-14.41 -21.79,-9.21 -42.7,-17.17 -62.08,-24.26 -9.78,-3.37 -19.1,-6.66 -28.07,-9.53 -9.03,-2.66 -17.5,-5.52 -25.62,-7.58 -8.12,-2.12 -15.66,-4.32 -22.8,-5.73 -7.08,-1.59 -13.59,-3.03 -19.56,-3.88 -5.94,-1.01 -11.25,-1.86 -15.94,-2.13 -4.66,-0.34 -8.61,-0.98 -11.84,-0.76 -6.44,0.07 -9.89,0.11 -9.89,0.11 0,0 3.44,0.04 9.88,0.11 3.23,-0.15 7.15,0.59 11.8,1.04 4.66,0.37 9.94,1.33 15.83,2.49 5.92,0.95 12.38,2.55 19.4,4.31 7.07,1.57 14.54,3.94 22.59,6.22 16.03,4.76 33.86,10.98 53.21,18.03 19.25,7.33 39.98,15.54 61.61,25.01 10.83,4.67 21.92,9.56 33.15,14.81 11.29,5.1 22.74,10.49 34.35,16.05 23.26,11.07 46.98,23.13 70.96,35.61 11.91,6.37 23.91,12.81 35.96,19.27 11.95,6.67 23.95,13.37 35.95,20.06 47.85,26.94 94.78,55.55 137.74,83.99 42.93,28.4 82.04,56.41 114.05,82.32 32.06,25.82 57.24,49.34 72.59,67.85 7.73,9.19 12.97,17.08 16.02,22.73 1.55,2.83 2.58,5.07 3.16,6.64 0.63,1.54 0.95,2.33 0.95,2.33z"/>
    <path class="fil1" d="M3062.25 788.76c0,0 -0.32,-0.79 -0.9,-2.35 -0.54,-1.58 -1.53,-3.84 -3.02,-6.71 -2.94,-5.75 -8.02,-13.79 -15.55,-23.19 -15.07,-18.83 -39.57,-43.27 -71.43,-69.52 -31.85,-26.31 -70.5,-55.17 -113.44,-83.8 -42.91,-28.68 -89.82,-57.53 -137.68,-84.76 -12.03,-6.65 -24.06,-13.31 -36.05,-19.95 -12.12,-6.42 -24.18,-12.82 -36.16,-19.17 -24.08,-12.4 -47.9,-24.37 -71.25,-35.36 -11.68,-5.49 -23.13,-10.94 -34.52,-15.89 -11.32,-5.11 -22.5,-9.87 -33.42,-14.41 -21.79,-9.21 -42.71,-17.17 -62.1,-24.27 -9.75,-3.36 -19.09,-6.66 -28.05,-9.52 -9.02,-2.65 -17.49,-5.53 -25.63,-7.57 -8.12,-2.13 -15.66,-4.32 -22.8,-5.73 -7.07,-1.59 -13.58,-3.04 -19.55,-3.88 -5.94,-1.01 -11.25,-1.87 -15.93,-2.14 -4.67,-0.32 -8.61,-0.96 -11.85,-0.76 -6.45,0.08 -9.88,0.12 -9.88,0.12 0,0 3.43,0.04 9.87,0.11 3.23,-0.14 7.16,0.58 11.79,1.03 4.66,0.36 9.94,1.35 15.83,2.49 5.93,0.96 12.39,2.57 19.4,4.31 7.07,1.57 14.54,3.94 22.59,6.22 16.04,4.78 33.87,10.99 53.2,18.04 19.25,7.33 40,15.54 61.62,25 10.84,4.69 21.92,9.56 33.14,14.81 11.29,5.13 22.74,10.51 34.35,16.07 23.25,11.06 46.96,23.1 70.96,35.58 11.91,6.4 23.91,12.82 35.97,19.27 11.95,6.67 23.95,13.37 35.94,20.06 47.85,26.97 94.8,55.56 137.72,83.99 42.94,28.41 82.06,56.42 114.08,82.33 32.06,25.82 57.23,49.32 72.59,67.83 7.72,9.18 12.96,17.08 16.03,22.74 1.55,2.82 2.58,5.06 3.16,6.63 0.63,1.54 0.96,2.33 0.96,2.33z"/>
    <polygon class="fil1" points="2954.68,741.65 2758.52,1079.12 2767.45,1084.17 "/>
    <path class="fil0" d="M1957.52 1781.35c3.26,0.01 5.91,2.65 5.91,5.9 0,3.27 -2.65,5.9 -5.9,5.91 -3.26,-0.01 -5.9,-2.65 -5.9,-5.9 -0.01,-3.25 2.63,-5.9 5.88,-5.91z"/>
    <path class="fil0" d="M559.26 524.34c211.96,-123.69 402.13,-192.51 424.78,-153.71l235.55 403.66c5.01,8.57 -60.8,43.41 -60.8,43.41 -94.12,-1.07 -201.25,26.25 -359.21,118.43 -157.96,92.18 -214.11,153.95 -275.38,251.9 0,0 -67.15,42.76 -72.14,34.17l-235.56 -403.65c-22.65,-38.79 130.82,-170.52 342.77,-294.21z"/>
    <path class="fil0" d="M516.74 1180.57c-3.45,2.16 -11.12,6.92 -20.07,12.15 -22.9,13.35 -33.74,17.95 -38.54,19.52l-232.78 -398.88c-4.37,-7.5 6.96,-38.54 81.25,-102.28 64.28,-55.19 155.84,-118.35 257.83,-177.87 102,-59.51 202.04,-108.16 281.71,-136.99 92.03,-33.3 124.64,-27.92 129.01,-20.42l232.84 398.99c-3.52,3.21 -12.17,9.92 -33.05,22.1 -8.05,4.71 -15.21,8.61 -18.71,10.52 -107.17,-0.6 -218.91,36.43 -361.85,119.84 -158.54,92.52 -216.33,155.68 -277.65,253.32zm-9.71 29.88c0,0 0,0 0.01,0 12.47,-7.29 22.26,-13.51 22.67,-13.77 1.3,-0.83 2.38,-1.92 3.19,-3.22 59.97,-95.86 115.94,-157.48 271.85,-248.46 140.72,-82.11 249.86,-118.22 353.91,-117.03 1.71,0.01 3.41,-0.39 4.92,-1.2 0.41,-0.21 10.01,-5.3 21.71,-12.13 39.88,-23.26 49.96,-33.9 43.18,-45.53l-235.57 -403.66c-33.86,-58.04 -280.98,57.91 -438.82,150.02 -157.82,92.11 -380.33,250.21 -346.47,308.25l235.56 403.66c6.75,11.58 22.97,4.19 31.69,0.23 8.42,-3.84 19.23,-9.6 32.17,-17.15z"/>
    <path class="fil1" d="M1204.91 790.08c-14.82,10.1 -30.57,18.74 -46.44,27.05 -5.31,-1.09 -14.28,-0.58 -20.74,-0.66 -7.66,-0.11 -15.32,-0.02 -22.98,0.35 -14.7,0.76 -29.29,2.15 -43.87,4.19 -30.86,4.31 -61.31,11.99 -90.93,21.62 -33.14,10.8 -65.23,24.45 -96.72,39.34 -53.81,25.46 -105.64,55.77 -155.24,88.62 -39.05,25.88 -76.97,54.26 -109.78,87.81 -37.91,38.77 -67.65,82.37 -94.62,129.26 -7.09,3.37 -15.92,10.06 -23.56,14.6 -8.6,5.12 -17.35,9.99 -26.33,14.45 15.74,-7.37 30.84,-16.04 45.69,-25.03 3.98,-2.42 5.53,-3.66 7.93,-7.6 2.42,-3.97 4.85,-7.93 7.31,-11.88 4.56,-7.32 9.2,-14.58 13.96,-21.75 10.5,-15.71 21.43,-31.07 33.21,-45.84 37.31,-46.81 83.41,-84.81 132.28,-118.91 52.29,-36.48 108.53,-68.28 165.56,-96.71 34.6,-17.25 70.54,-32.24 107.27,-44.33 33.01,-10.85 66.92,-18.9 101.44,-23.13 16.7,-2.04 33.51,-3.25 50.34,-3.39 6.66,-0.05 16.07,1.84 22.1,-0.9 7.74,-3.53 15.2,-8.54 22.46,-12.95 7.38,-4.5 14.63,-9.19 21.66,-14.22 -14.82,10.1 -14.59,10.44 0,0z"/>
    <polygon class="fil0" points="299.29,960.43 1066.83,512.53 794.64,46.07 27.09,493.98 "/>
    <path class="fil1" d="M1428.85 2005.13l0 0c41.26,-24.07 55.19,-77.02 31.11,-118.26l-654.93 -1112.94 -149.37 87.17 654.93 1112.94c24.06,41.25 77.01,55.16 118.26,31.09z"/>
    <path class="fil1" d="M1747 2574.1c141.34,-82.47 189.06,-263.92 106.59,-405.24 -82.48,-141.34 -263.93,-189.06 -405.26,-106.58 -141.34,82.48 -189.05,263.92 -106.57,405.26 82.48,141.34 263.92,189.05 405.24,106.57zm-561.72 -283.27c40.88,-57.95 144.39,-170.4 55.96,-321.92l-628.61 -1067.84 248.38 -144.95 628.6 1067.85c90.16,154.5 222.13,126.05 287.7,121.11 19.75,-1.49 38.65,8.27 48.64,25.39l205.87 352.77c7.83,13.43 3.3,30.67 -10.14,38.5l-79.96 46.68c-20.44,89.76 -76.5,171.19 -162.29,221.25 -85.78,50.06 -184.25,58.81 -272.45,32.44l-79.98 46.67c-13.42,7.84 -30.66,3.3 -38.51,-10.13l-205.55 -352.25c-10.15,-17.4 -9.29,-39.11 2.35,-55.58z"/>
    <path class="fil0" d="M1502.4 2154.94c90.02,-52.53 205.98,-22.04 258.52,67.98 52.53,90.02 22.03,205.99 -67.99,258.52 -90.02,52.54 -205.98,22.04 -258.52,-67.99 -52.54,-90.01 -22.03,-205.97 67.98,-258.51zm224.19 384.17c121.83,-71.09 163.1,-228.03 92,-349.85 -71.08,-121.82 -228.02,-163.09 -349.84,-92 -121.82,71.09 -163.09,228.03 -92.01,349.85 71.1,121.82 228.04,163.09 349.85,92z"/>
    <path class="fil1" d="M1464.42 2519.8c10.84,6.5 21.56,12.73 33,18.09 13.44,6.28 27.68,10.76 42.01,14.49 29.49,7.68 61.12,8.39 91.25,4.49 57.19,-7.4 114.07,-36.31 150.98,-81.11 36.59,-44.41 56.98,-98.47 57.16,-156.25 0.19,-65.17 -25.34,-129.95 -72.47,-175.39 -42.79,-41.24 -100.88,-65.65 -160.29,-67.51 -4.54,-0.14 -9.1,-0.09 -13.66,-0.1 56.6,1.38 111.37,19.34 155.43,55.63 49.31,40.58 79.88,101.07 85.24,164.54 4.96,58.65 -11.02,122.26 -48.7,168.32 -13.77,16.83 -28.67,32.55 -46.65,45.05 -26.63,18.53 -56.2,32.53 -87.89,39.92 -57.35,13.35 -121.92,6.21 -173.32,-23.25 -4.03,-2.31 -8.07,-4.61 -12.11,-6.91z"/>
    <path class="fil1" d="M1497.9 2518.11c21.96,9.97 44.11,17.89 68.09,21.39 26.32,3.84 53.07,2.73 79.12,-2.49 48.21,-9.67 92.41,-35.67 124.63,-72.71 71.67,-82.35 69.57,-215.52 -3.97,-295.94 -39.46,-43.15 -92.69,-67.45 -150.47,-72.96 47.57,5.77 92.04,23.98 128.23,55.83 41.13,36.2 67.07,87.97 72.83,142.37 5.34,50.63 -6.48,103.29 -34.28,146.1 -29.4,45.3 -76.61,78.52 -128.85,92.04 -27.11,7.02 -55.04,8.82 -82.9,6.38 -25.37,-2.22 -49.11,-10.13 -72.41,-20z"/>
    <path class="fil1" d="M1448.9 2731.7l55.96 -32.65c4.02,-2.35 5.37,-7.52 3.03,-11.55l-11.29 -19.34 -70.53 41.16 11.29 19.34c2.36,4.03 7.53,5.39 11.54,3.04z"/>
    <path class="fil0" d="M1492.9 2682.22l5.02 8.6 -52.33 30.92c-0.16,0.09 -0.35,0.03 -0.45,-0.12l-5.02 -8.6 52.78 -30.8zm-36.95 57.26l52.2 -30.46c9.95,-5.8 13.31,-18.61 7.52,-28.56l-15.38 -26.34 -88.27 51.51 15.38 26.34c5.8,9.94 18.61,13.32 28.55,7.51z"/>
    <path class="fil1" d="M1576.48 2115.62c-30.1,2.36 -58.88,9.78 -85.52,24.26 -30.74,16.7 -57.14,41.56 -74.65,71.93 -36.44,63.23 -37.22,140.53 -2.19,204.5 16.03,29.27 40.47,52.82 68.61,70.33 -23.06,-16.84 -42.88,-37.07 -57.81,-61.53 -17.94,-29.35 -27.81,-63.1 -29.47,-97.42 -3.37,-69.19 29.23,-137.43 86.6,-176.63 28.4,-19.41 60.64,-30.27 94.43,-35.44z"/>
    <path class="fil0" d="M1272.27 2499.47l-89.34 -153.07c-10.15,-17.4 -9.29,-39.11 2.35,-55.58 18.79,-26.63 50.77,-64.81 71.3,-112.97 8.87,2.53 23.15,-20.31 12.05,18.91 -18.95,66.99 -61.34,107.41 -54.83,132.61 5.35,20.65 51.75,97.89 84.89,154.66l-26.42 15.43z"/>
    <path class="fil0" d="M1323.25 2519.76c0,0 46.58,78.97 65.54,111.44 14.18,24.3 48.91,36.49 57.96,32.55 21.47,-9.33 57.17,-24.63 57.21,-23.95 0.94,11.65 1.9,11.16 4.01,22.57 -0.34,-0.1 -0.67,-0.17 -0.99,-0.27l-79.98 46.67c-13.42,7.84 -30.66,3.3 -38.51,-10.13l-94.44 -161.85 29.2 -17.05z"/>
    <path class="fil0" d="M707.79 830.67l97.24 -56.75 118.2 202.54c-68.43,15.1 -101.97,51.29 -73.2,102.23 28.76,50.96 506.91,876.22 506.91,876.22 18.71,32.07 60.66,36.21 95.21,30.24 -6.36,7.77 -14.1,14.62 -23.29,19.97 -41.24,24.07 -94.19,10.15 -118.26,-31.09l-654.93 -1112.94 52.13 -30.42z"/>
    <polygon class="fil0" points="1328.26,2516.86 1411.54,2649.4 1337.11,2511.67 "/>
    <polygon class="fil0" points="1298.6,2455.85 1216.25,2299.46 1202.94,2307.22 "/>
    <polygon class="fil0" points="1428.85,2597.92 1458.86,2664.66 1472.18,2656.89 "/>
    <polygon class="fil0" points="1743.01,1958.61 1695.27,1965.64 1753.52,2065.47 1837.08,2119.8 "/>
    <polygon class="fil0" points="1896.73,2222.01 1899.9,2308.46 1948.21,2391.24 1983.27,2370.32 "/>
    <polygon class="fil0" points="1936.56,2411.41 1945.44,2406.24 1906.17,2338.95 1897.3,2344.12 "/>
    <path class="fil0" d="M1499.79 1944.91c0.27,-22.33 -12.35,-50.23 -46.48,-108.68 -109.51,-187.67 -641.81,-1051.21 -641.81,-1051.21l49.5 -28.89 660.87 1123.14 -9.13 5.33c38.12,28.46 114.35,79.99 171.51,84.29 0,0 17.16,29.39 31.83,54.5 -67.96,-27.26 -177.04,-18.9 -273.42,21.64 64.97,-51.34 56.8,-73.9 57.13,-100.11z"/>
    <path class="fil0" d="M1895.7 2366.86l37.54 64.34c0,0 -58.69,212.83 -289.07,233.36 131.03,-49.7 164.62,-97.56 71.16,-56.41 89.72,-62.34 147.75,-131.06 159.98,-186.53 12.24,-55.47 20.38,-54.76 20.38,-54.76z"/>
    <polygon class="fil0" points="659.5,944.18 761.42,1113.5 677.64,934.52 "/>
    <path class="fil0" d="M1452.34 1958.71c30.13,-50.29 -364.6,-648.53 -446.03,-788.07 0,0 388.07,662.8 417.39,711.12 20.17,33.2 28.64,76.95 28.64,76.95z"/>
    <path class="fil0" d="M789.97 1136.78c0,0 3.18,6.33 8.94,17.29 5.85,10.9 13.95,26.62 24.14,45.23 10.12,18.64 272.96,460.8 286.01,483.86 6.55,11.54 13.33,23.42 20.21,35.52 6.96,12.04 14.03,24.29 21.11,36.53 7.17,12.18 14.34,24.36 21.41,36.35 7.01,12.02 14.18,23.69 20.97,35.06 13.66,22.71 26.61,43.8 37.86,61.78 11.18,18.02 20.9,32.81 27.51,43.27 6.7,10.41 10.65,16.28 10.65,16.28 0,0 -3.15,-6.34 -8.92,-17.3 -5.85,-10.91 -13.96,-26.63 -24.15,-45.24 -10.11,-18.65 -22.09,-40.28 -35.15,-63.36 -6.56,-11.51 -13.2,-23.49 -20.22,-35.5 -6.95,-12.04 -14.03,-24.29 -21.1,-36.53 -7.18,-12.17 -14.35,-24.35 -21.42,-36.35 -7.14,-11.94 -14.17,-23.69 -20.98,-35.06 -13.67,-22.7 -277.46,-464.31 -288.73,-482.27 -11.19,-18.02 -20.89,-32.82 -27.5,-43.27 -6.7,-10.41 -10.65,-16.29 -10.65,-16.29z"/>
    <path class="fil0" d="M899.89 965.57c35.89,63.81 97.19,175.23 97.19,175.23 0,0 -37.68,-64.52 -78.36,-49.69 -13.81,5.02 -22.52,21.07 -40.97,9.53 -26.21,-16.36 -36.72,-61.83 -22.94,-69.87 30.96,-18.07 29.85,26.95 52.02,11.03 17.28,-12.4 -6.94,-76.24 -6.94,-76.24z"/>
    <path class="fil0" d="M968.29 1123.33c-24.23,-12.62 -60.52,-3.86 -75.2,31.47 -14.67,35.36 28.88,54.1 25.96,46.78 -4.74,-11.9 -6.72,-22.58 -4.56,-31.98 10.37,-45.13 53.79,-46.27 53.79,-46.27z"/>
    <path class="fil0" d="M1339.9 1777.51c-18.86,11.01 -69.38,26.36 -102.39,-12.96 -25.24,-30.03 -31.1,-71.81 -31.1,-71.81 0,0 26.16,57.46 73.26,80.52 30.17,14.78 60.23,4.25 60.23,4.25z"/>
    <path class="fil0" d="M1265.38 1643.24c1.65,2.81 5.27,3.75 8.08,2.11 2.82,-1.63 3.76,-5.25 2.13,-8.07 -1.65,-2.81 -5.26,-3.75 -8.08,-2.13 -2.81,1.65 -3.76,5.26 -2.13,8.09z"/>
    <path class="fil1" d="M612.63 901.07l248.38 -144.95 628.6 1067.85c90.16,154.5 222.13,126.05 287.7,121.11 19.75,-1.49 38.65,8.27 48.64,25.39l205.87 352.77c7.83,13.43 3.3,30.67 -10.14,38.5l-79.96 46.68c-20.44,89.76 -76.5,171.19 -162.29,221.25 -85.78,50.06 -184.25,58.81 -272.45,32.44l-79.98 46.67c-13.42,7.84 -30.66,3.3 -38.51,-10.13l-205.55 -352.25c-10.15,-17.4 -9.29,-39.11 2.35,-55.58 40.88,-57.95 144.39,-170.4 55.96,-321.92l-628.61 -1067.84 0 0zm28.1 7.39l618.27 1050.08c87.16,149.35 1.44,265.07 -44.61,327.23 -4.48,6.05 -8.72,11.78 -12.32,16.89 -6.94,9.83 -7.48,22.94 -1.4,33.38l205.57 352.26c2.11,3.62 6.78,4.84 10.4,2.73l79.99 -46.67 7.69 -4.49 8.54 2.55c86.97,26 177.96,15.16 256.22,-30.5 78.25,-45.66 132.45,-119.56 152.6,-208.07l1.97 -8.7 7.71 -4.49 79.97 -46.67c3.63,-2.11 4.85,-6.78 2.73,-10.4l-205.85 -352.78c-6.02,-10.31 -17.27,-16.16 -29.36,-15.25 -5.45,0.41 -11.56,1 -18.02,1.63 -69.9,6.85 -199.99,19.6 -288.96,-132.88l-618.26 -1050.08 -212.88 124.22 0 0z"/>
    <path class="fil1" d="M797.64 802.02l644.58 1095.2c18.31,31.4 7.68,71.84 -23.73,90.16 -31.38,18.31 -71.83,7.68 -90.16,-23.71l-644.56 -1095.19 113.86 -66.46zm641.57 1220.85c50.97,-29.75 68.24,-95.4 38.5,-146.37l-665.29 -1130.68 -184.86 107.88 665.28 1130.68c29.74,50.97 95.4,68.23 146.37,38.5z"/>
    <path class="fil1" d="M1458.68 2080.02c131.32,-76.64 300.52,-32.14 377.16,99.18 76.63,131.33 32.13,300.51 -99.2,377.15 -131.32,76.63 -300.49,32.14 -377.14,-99.18 -76.63,-131.32 -32.14,-300.51 99.18,-377.15zm298.69 511.82c150.9,-88.06 202.02,-282.46 113.97,-433.36 -88.07,-150.88 -282.47,-202.01 -433.36,-113.95 -150.88,88.05 -202.01,282.45 -113.96,433.35 88.06,150.9 282.46,202.02 433.36,113.96z"/>
    <polygon class="fil0" points="1287.79,2526.09 1353.55,2487.71 1343.19,2469.97 1277.44,2508.34 "/>
    <polygon class="fil0" points="1872.34,2184.96 1931.11,2150.67 1920.76,2132.92 1861.98,2167.23 "/>
    <path class="fil0" d="M913.17 838.62c-19.35,9.31 -53.47,30.7 -53.47,30.7l7.75 15.81 -146.89 87.2 -9.48 -16.26 -49.5 28.88 -29.63 -54.89 249.57 -145.66 31.65 54.22z"/>
    <path class="fil0" d="M1347.6 2206.14c0,0 -1.22,2.62 -3.49,7.55 -2.21,4.92 -5.4,12.27 -8.69,21.87 -6.44,19.15 -14.18,47.65 -14.63,82.81 -0.27,17.52 1.05,36.58 4.9,56.37 0.52,2.46 1.05,4.95 1.59,7.44l0.86 3.95 1.06 3.66c1.4,4.9 2.84,9.85 4.29,14.86 0.72,2.51 1.45,5.03 2.17,7.56 0.82,2.52 1.98,5.02 2.96,7.54 2.05,5.06 4.12,10.15 6.23,15.29 1.87,5.26 4.89,9.93 7.41,14.95 2.65,4.91 5.15,9.98 8.01,14.88 3.15,4.73 6.29,9.48 9.48,14.26l4.82 7.16c1.75,2.29 3.65,4.48 5.46,6.73 3.71,4.46 7.39,8.95 11.11,13.45 3.9,4.34 8.21,8.31 12.3,12.5 7.97,8.65 17.56,15.59 26.54,23.19 19.05,13.73 39.25,26.2 60.84,34.68 21.19,9.53 43.64,14.44 65.24,18.45 5.49,0.55 10.92,1.1 16.3,1.64 5.4,0.48 10.7,1.3 16.02,1.04 5.29,-0.02 10.53,-0.05 15.7,-0.07 2.59,-0.06 5.17,0.06 7.71,-0.14 2.54,-0.27 5.06,-0.53 7.56,-0.79 10,-1.15 19.82,-1.67 29.02,-4.07 9.19,-2.05 18.33,-3.64 26.57,-6.27 33.75,-10.05 59.12,-25.04 75.82,-36.46 8.38,-5.74 14.52,-10.82 18.71,-14.27 4.12,-3.55 6.3,-5.43 6.3,-5.43 0,0 -2.31,1.74 -6.63,4.99 -4.4,3.19 -10.92,7.71 -19.48,13.03 -8.58,5.3 -19.3,11.23 -32.07,16.96 -12.77,5.67 -27.68,11.1 -44.18,15.48 -8.4,2.34 -17.16,3.49 -26.28,5.2 -9.02,2.03 -18.6,2.33 -28.35,3.18 -2.44,0.19 -4.9,0.39 -7.38,0.59 -2.47,0.12 -4.97,-0.06 -7.48,-0.08 -5.02,-0.11 -10.11,-0.22 -15.23,-0.32 -5.15,0.12 -10.29,-0.81 -15.49,-1.34 -5.19,-0.6 -10.45,-1.21 -15.75,-1.81 -20.88,-4.18 -42.37,-9.46 -62.78,-18.66 -20.79,-8.27 -40.18,-20.43 -58.51,-33.73 -8.68,-7.28 -17.97,-13.9 -25.68,-22.22 -3.97,-4.02 -8.16,-7.82 -11.92,-11.98 -3.6,-4.32 -7.2,-8.63 -10.77,-12.92 -1.77,-2.15 -3.62,-4.25 -5.33,-6.44l-4.68 -6.88c-3.14,-4.57 -6.25,-9.11 -9.37,-13.62 -2.84,-4.68 -5.32,-9.54 -7.96,-14.25 -2.48,-4.79 -5.53,-9.33 -7.36,-14.29 -2.08,-4.86 -4.13,-9.68 -6.17,-14.46 -0.99,-2.41 -2.13,-4.72 -2.99,-7.19 -0.81,-2.51 -1.59,-5.01 -2.36,-7.5 -1.58,-4.97 -3.14,-9.89 -4.68,-14.75l-1.15 -3.64 -0.83 -3.44c-0.57,-2.42 -1.16,-4.81 -1.72,-7.19 -4.16,-19.16 -6.14,-37.68 -6.51,-54.83 -0.3,-17.16 0.89,-32.92 2.95,-46.76 2.07,-13.84 4.97,-25.75 7.7,-35.45 2.86,-9.67 5.36,-17.19 7.31,-22.26 1.94,-5.06 2.98,-7.76 2.98,-7.76z"/>
    <path class="fil0" d="M1699.72 2061.45c0,0 -3.62,-1.82 -10.02,-4.77 -3.29,-1.31 -7.22,-3.16 -11.89,-4.77 -4.63,-1.73 -9.93,-3.51 -15.8,-5.18 -11.72,-3.37 -25.72,-6.32 -40.97,-7.87 -7.64,-0.73 -15.54,-1.25 -23.61,-1.28 -8.05,0.1 -16.24,0.38 -24.39,1.12 -8.14,0.87 -16.25,1.99 -24.15,3.57 -3.96,0.71 -7.86,1.56 -11.69,2.59 -3.83,0.93 -7.63,1.96 -11.21,3.02 -14.77,4.36 -27.95,9.84 -38.85,15.37 -10.93,5.43 -19.48,10.92 -25.33,14.91 -5.82,4.03 -8.97,6.56 -8.97,6.56 0,0 3.64,-1.74 9.98,-4.79 6.38,-2.97 15.53,-7.05 26.7,-11.28 5.58,-2.1 11.69,-4.2 18.18,-6.29 6.47,-2.04 13.47,-3.93 20.57,-5.73 3.69,-0.92 7.33,-1.72 11.07,-2.44 3.73,-0.79 7.51,-1.49 11.35,-2.15 7.64,-1.42 15.47,-2.37 23.32,-3.1 7.84,-0.84 15.72,-1.23 23.49,-1.44 3.88,0 7.73,0 11.54,-0.01 3.81,0.15 7.57,0.14 11.28,0.39 7.39,0.46 14.55,0.98 21.32,1.81 6.77,0.82 13.14,1.78 19.03,2.77 5.86,1.1 11.25,2.13 16.01,3.21 4.78,1.01 8.86,2.14 12.29,2.92 6.83,1.82 10.73,2.86 10.73,2.86z"/>
    <path class="fil0" d="M1720.2 2616.48c-27.16,6.37 -53.78,14.06 -81.52,17.78 -28.56,3.82 -56.2,3.24 -84.79,0.46 52.67,22.85 118.34,10.58 166.3,-18.24z"/>
    <path class="fil0" d="M857.31 770.19l623.42 1058.95c85.67,146.79 206.75,134.93 279.09,127.85 6.53,-0.65 12.64,-1.25 18.26,-1.67 16.03,-1.21 30.97,6.58 38.99,20.33l205.87 352.77c4.97,8.52 2.09,19.48 -6.42,24.45l-83.84 48.92 -0.99 4.35c-20.78,91.31 -76.68,167.54 -157.43,214.66 -80.74,47.11 -174.61,58.28 -264.34,31.46l-4.27 -1.27 -83.83 48.92c-8.5,4.97 -19.48,2.08 -24.45,-6.43l-205.56 -352.25c-8.12,-13.91 -7.39,-31.37 1.85,-44.48 3.71,-5.24 7.93,-10.94 12.48,-17.09 44.63,-60.26 127.72,-172.43 43.97,-315.93l-623.42 -1058.97 230.61 -134.57zm927.3 1868.35c83.19,-48.54 143.52,-129.81 166.09,-223.48l76.16 -44.45c18.3,-10.68 24.51,-34.25 13.83,-52.55l-205.86 -352.78c-12.02,-20.6 -34.36,-32.26 -58.29,-30.45 -5.76,0.44 -12.02,1.05 -18.72,1.71 -67.45,6.6 -180.32,17.65 -259.35,-117.75l-633.79 -1076.7 -266.1 155.28 633.79 1076.7c76.91,131.81 2.01,232.95 -42.75,293.36 -4.65,6.28 -8.97,12.1 -12.76,17.47 -13.86,19.66 -14.97,45.83 -2.81,66.67l205.57 352.25c10.68,18.3 34.25,24.5 52.55,13.82l76.16 -44.45c92.66,26.42 193.11,13.87 276.27,-34.67z"/>
    <path class="fil0" d="M801.34 787.97l649.75 1104.07c21.17,36.29 8.88,83.04 -27.42,104.21 -36.28,21.18 -83.04,8.88 -104.21,-27.4l-649.75 -1104.07 131.63 -76.81zm632.7 1226.04c46.07,-26.89 61.7,-86.25 34.79,-132.32l-660.11 -1121.81 -167.11 97.52 660.11 1121.82c26.89,46.07 86.24,61.67 132.31,34.79z"/>
    <path class="fil0" d="M1453.51 2071.15c136.21,-79.5 311.7,-33.34 391.2,102.87 79.48,136.22 33.34,311.71 -102.88,391.2 -136.21,79.49 -311.7,33.34 -391.18,-102.87 -79.5,-136.21 -33.36,-311.71 102.87,-391.19zm298.68 511.82c146.01,-85.2 195.47,-273.3 110.26,-419.31 -85.19,-146 -273.31,-195.46 -419.3,-110.26 -146,85.2 -195.46,273.3 -110.26,419.3 85.19,146.01 273.31,195.47 419.3,110.27z"/>
    <path class="fil0" d="M1366.43 1778.39c-7.11,32.4 -94.15,34.87 -131.04,-18.18 -16.1,-26.05 70.87,121.49 66.99,114.82 0,0 14.38,-23.54 52.89,-20.23 36.77,3.15 66.74,18.84 89.07,57.06 22.3,38.23 -77.9,-133.46 -77.9,-133.46z"/>
    <path class="fil1" d="M559.26 524.34c211.96,-123.69 402.13,-192.51 424.78,-153.71l235.55 403.66c5.01,8.57 -47.72,15.67 -67.54,24.37 -81.33,-43.75 -229.91,-15.35 -387.85,76.83 -157.96,92.17 -255.5,205.46 -257.42,297.8 -23.81,18.96 -49.72,57.49 -54.72,48.9l-235.56 -403.65c-22.65,-38.79 130.82,-170.52 342.77,-294.21z"/>
    <path class="fil1" d="M355.11 174.5c211.96,-123.69 402.13,-192.51 424.77,-153.7l70.49 120.81c-22.64,-38.8 -212.81,30.02 -424.76,153.7 -211.96,123.69 -365.42,255.41 -342.79,294.2l-70.48 -120.8c-22.65,-38.81 130.82,-170.52 342.77,-294.21z"/>
    <path class="fil1" d="M500.1 422.95c211.94,-123.69 402.13,-192.51 424.76,-153.71l43.64 74.77c-22.64,-38.8 -212.82,30.02 -424.77,153.71 -211.96,123.69 -365.42,255.41 -342.78,294.2l-43.63 -74.77c-22.65,-38.8 130.82,-170.52 342.78,-294.2z"/>
    <path class="fil1" d="M440.93 321.56c211.94,-123.69 402.12,-192.51 424.76,-153.72l43.64 74.78c-22.64,-38.8 -212.81,30.02 -424.77,153.71 -211.96,123.69 -365.42,255.4 -342.78,294.2l-43.64 -74.77c-22.63,-38.81 130.83,-170.52 342.79,-294.21z"/>
    <path class="fil0" d="M182.54 692.42c4.41,-6.93 11.29,-16 21.68,-27.4l7.96 -9.26c0,0 -7.38,10.26 -2.61,18.45 4.78,8.17 6.88,11.78 11.29,19.34 4.4,7.55 14.94,0.11 14.94,0.11l-9.57 9.11c-9.04,9.35 -16.54,17.89 -22.67,25.68l-21.03 -36.03z"/>
    <path class="fil0" d="M108.12 500.36c-9.04,9.33 -16.54,17.89 -22.69,25.67l-47.88 -82.05c4.4,-6.93 11.29,-16 21.69,-27.4l12.66 -13.11c0,0 -11.92,14.39 -5.56,25.29 4.73,8.11 24.28,41.61 34.64,59.35 6.36,10.9 16.59,2.64 16.59,2.64l-9.44 9.61z"/>
    <path class="fil0" d="M262.85 610.08c0.56,-0.49 1.11,-0.94 1.7,-1.43 17.31,-14.44 36.51,-29.41 57.14,-44.66l22.8 39.06c-21.22,15.61 -41,30.96 -59,45.83l-8.12 6.78c0,0 7.64,-7.61 1.88,-17.46 -5.73,-9.85 -3.31,-5.69 -9.14,-15.66 -5.82,-9.99 -15.86,-4.89 -15.86,-4.89l8.6 -7.56z"/>
    <path class="fil0" d="M145.04 563.63l8 -9.21c0,0 -7.45,10.16 -2.75,18.2 3.09,5.29 7.27,12.47 11.23,19.23 4.61,7.89 14.61,0.21 14.61,0.21l-9.07 9.31c-9.04,9.35 -16.54,17.88 -22.69,25.68l-21 -36c4.4,-6.94 11.28,-16.02 21.66,-27.42z"/>
    <path class="fil0" d="M176.71 315.53l49.65 85.09c-21.22,15.61 -40.99,30.96 -59,45.84l-12.2 11.13c0,0 11,-13.23 3.76,-25.62 -7.23,-12.39 -29.05,-49.79 -33.3,-57.07 -6.18,-10.59 -21.93,-1.89 -21.93,-1.89l14.17 -11.39c0.57,-0.49 1.12,-0.95 1.7,-1.43 17.32,-14.44 36.52,-29.41 57.15,-44.66z"/>
    <path class="fil0" d="M671.15 47.24l9.96 -3.02c0,0 -9.63,3.58 -2.91,15.08 4.82,8.28 24.56,42.1 35.27,60.45 6.39,10.96 18.66,8.09 18.66,8.09l-11.66 3.91c-5.93,1.98 -12.07,4.13 -18.48,6.44 -41.14,14.89 -87.51,34.93 -136.7,58.89l-49.71 -85.19c41.74,-20.24 81.37,-37.59 117.07,-51.12 14.19,-5.35 26.96,-9.81 38.5,-13.52z"/>
    <path class="fil0" d="M478.92 130.16l49.75 85.25c-24.74,12.69 -49.97,26.17 -75.5,40.46l-49.78 -85.29c25.51,-14.27 50.79,-27.78 75.54,-40.42z"/>
    <path class="fil0" d="M855.76 284.59c20.35,-4.7 33.94,-5.94 42.31,-5.64l20.52 35.2c-11.52,1.43 -24.99,4.07 -40.79,8.2l-22.04 -37.75z"/>
    <path class="fil0" d="M564.74 277.22l22.9 39.23c-24.77,12.67 -49.99,26.16 -75.53,40.46l-22.91 -39.27c25.51,-14.28 50.78,-27.78 75.54,-40.42z"/>
    <path class="fil0" d="M262.52 462.58l22.78 39.06c-21.22,15.63 -40.99,30.97 -59,45.84l-9.07 8.18c0,0 7.15,-11.47 3.26,-18.15 -3.53,-6.04 -7.18,-12.3 -9.54,-16.34 -5.96,-10.21 -19.6,-2.32 -19.6,-2.32l12.31 -10.18c0.57,-0.48 1.13,-0.94 1.69,-1.42 17.32,-14.43 36.53,-29.41 57.15,-44.68z"/>
    <path class="fil0" d="M756.98 194.3l11.36 -3.47c0,0 -10.2,5.45 -6.13,12.41 2.26,3.91 7.39,12.68 11.46,19.67 5.29,9.05 18.91,6.06 18.91,6.06l-13.16 3.79c-5.92,1.99 -12.07,4.13 -18.49,6.46 -41.14,14.87 -87.51,34.9 -136.69,58.86l-22.85 -39.14c41.73,-20.24 81.37,-37.59 117.08,-51.12 14.17,-5.36 26.96,-9.81 38.5,-13.52z"/>
    <path class="fil0" d="M859.43 212.74c-11.53,1.44 -25.01,4.08 -40.82,8.21l-22.04 -37.77c20.36,-4.7 33.94,-5.92 42.32,-5.63l20.54 35.19z"/>
    <path class="fil0" d="M683.41 399.49l-22.84 -39.16c41.73,-20.24 81.36,-37.59 117.07,-51.12 14.18,-5.35 26.96,-9.81 38.51,-13.52l11.2 -3.74c0,0 -10.33,5.22 -6.17,12.38 3.14,5.36 7.21,12.35 10.69,18.3 6.73,11.52 16.42,8.39 16.42,8.39l-9.69 3.13c-5.94,1.99 -12.08,4.14 -18.48,6.46 -41.14,14.88 -87.52,34.91 -136.71,58.88z"/>
    <path class="fil0" d="M800.47 111.71c-11.52,1.43 -25,4.07 -40.81,8.21l-48.89 -83.8c20.35,-4.69 33.94,-5.93 42.31,-5.63l47.39 81.22z"/>
    <path class="fil0" d="M623.9 378.61l22.9 39.23c-24.74,12.67 -49.97,26.14 -75.5,40.45l-22.92 -39.27c25.51,-14.26 50.78,-27.77 75.53,-40.41z"/>
    <path class="fil0" d="M1153.24 776.32c-4.42,-2.04 -9.05,-3.87 -13.77,-5.56l-224.55 -384.79c20.37,-4.69 33.94,-5.91 42.31,-5.62l226.33 387.84c-1.55,0.39 -3.09,0.77 -4.47,1.11 -9.27,2.32 -18.2,4.54 -25.85,7.03z"/>
    <path class="fil0" d="M683.08 480.01l187.02 320.47c-25.54,10.27 -51.62,22.25 -78.06,36.11l-184.52 -316.18c25.51,-14.27 50.8,-27.76 75.55,-40.4z"/>
    <path class="fil0" d="M719.74 461.74c41.73,-20.26 81.37,-37.62 117.08,-51.12 14.17,-5.36 26.96,-9.84 38.48,-13.54 0,0 7.36,-2.29 14.5,-4.03 0,0 -13.54,5.65 -6.63,17.49 6.19,10.62 158.89,272.27 191.37,327.95 11.54,19.77 32.08,23.19 32.08,23.19 -10.36,-1.67 -19.85,-2.23 -19.85,-2.23 -50.95,-4.79 -111.86,4.4 -177.79,26.58l-189.24 -324.29z"/>
    <path class="fil0" d="M322.02 711.47c0.57,-0.47 1.11,-0.94 1.7,-1.43 17.32,-14.43 36.52,-29.39 57.15,-44.66l193.24 331.16c-19.44,20.87 -35.88,41.89 -49.09,62.78l-11.17 19.74c0,0 9.15,-23.19 -2.17,-42.58 -41.63,-71.38 -167.12,-286.39 -177.09,-303.48 -11.98,-20.53 -27.76,-8.69 -27.76,-8.69l15.19 -12.85z"/>
    <path class="fil0" d="M468.29 1182.09l-226.58 -388.28c4.41,-6.91 11.3,-15.99 21.68,-27.39l11.47 -11.55c0,0 -10.84,12.63 -3.24,25.67 6.45,11.03 155.18,265.92 202.39,346.8 10.14,17.38 21.81,-9.75 21.81,-9.75 0,0 -7.54,22.75 -7.68,33.96 -0.11,8.5 -1.12,7.94 -1.43,11.88 -6.4,5.83 -12.6,12.31 -18.42,18.66z"/>
    <path class="fil1" d="M539.77 772.08c39.44,67.6 126.21,90.42 193.81,50.97 67.6,-39.45 90.42,-126.21 50.97,-193.81 -39.45,-67.61 -126.21,-90.42 -193.83,-50.97 -67.6,39.43 -90.42,126.23 -50.96,193.81z"/>
    <path class="fil0" d="M549.06 766.67c36.46,62.45 116.64,83.54 179.1,47.08 62.47,-36.45 83.54,-116.64 47.1,-179.09 -36.45,-62.47 -116.64,-83.55 -179.09,-47.11 -62.47,36.46 -83.55,116.64 -47.11,179.12z"/>
    <path class="fil1" d="M605.58 794.27c53.16,34.83 128.01,14.71 158.41,-40.46 15.21,-27.61 17.69,-61.18 6.87,-90.76 -11.23,-30.67 -36.15,-55.2 -66.78,-66.36 -30.79,-11.21 -66.02,-8.85 -94.42,7.83 53.47,-23.98 120.13,-3.04 146.75,50.08 13.38,26.67 14.6,58.73 2.9,86.24 -11.91,28.02 -36.16,50.35 -65.09,59.92 -28.99,9.57 -61.38,7.41 -88.64,-6.48z"/>
    <path class="fil0" d="M405.88 169.12c-16.58,8.87 -29.9,16.96 -29.9,16.96 0,0 27.09,-16.03 42.14,9.76 15.04,25.78 5.67,-23.38 5.67,-23.38l-17.91 -3.33z"/>
    <path class="fil0" d="M199.94 298c-10.79,7.76 -27.95,21.03 -27.95,21.03 0,0 22.62,29.28 15.61,15.16 -8.37,-16.92 12.34,-36.2 12.34,-36.2z"/>
    <path class="fil0" d="M491.72 316.22c-16.57,8.88 -29.68,17.33 -29.68,17.33 0,0 27.07,-16.03 42.13,9.76 15.05,25.79 5.68,-23.4 5.68,-23.4l-18.13 -3.69z"/>
    <path class="fil0" d="M285.99 445.47c-10.79,7.75 -28.2,20.62 -28.2,20.62 0,0 22.87,29.7 15.86,15.55 -8.38,-16.9 12.34,-36.18 12.34,-36.18z"/>
    <path class="fil0" d="M551.1 417.99c-16.57,8.86 -29.87,16.94 -29.87,16.94 0,0 27.07,-16.02 42.11,9.76 15.06,25.78 5.68,-23.39 5.68,-23.39l-17.92 -3.32z"/>
    <path class="fil0" d="M345.16 546.86c-10.79,7.76 -28.2,20.63 -28.2,20.63 0,0 22.86,29.7 15.86,15.57 -8.37,-16.91 12.34,-36.2 12.34,-36.2z"/>
    <path class="fil0" d="M611.01 518.4c-16.58,8.87 -30.61,17.93 -30.61,17.93 0,0 27.07,-16.03 42.12,9.75 15.04,25.79 5.68,-23.39 5.68,-23.39l-17.19 -4.3z"/>
    <path class="fil0" d="M404.34 648.26c-10.8,7.75 -28.21,20.62 -28.21,20.62 0,0 22.87,29.7 15.87,15.57 -8.39,-16.91 12.34,-36.19 12.34,-36.19z"/>
    <path class="fil0" d="M453.16 255.88c-15.67,8.83 -27.18,15.87 -27.18,15.87 0,0 24.02,-15.33 14.53,-37.54 -9.5,-22.22 18.08,-2.14 18.08,-2.14l-5.43 23.81z"/>
    <path class="fil0" d="M226.36 400.63c13.79,-10.21 24.87,-16.69 24.87,-16.69 0,0 -22.64,14.55 -37.31,-4.64 -14.67,-19.19 -13.18,15.64 -13.18,15.64l25.62 5.69z"/>
    <path class="fil0" d="M512.11 356.91c-15.66,8.82 -27.17,15.85 -27.17,15.85 0,0 24.02,-15.32 14.53,-37.53 -9.51,-22.21 18.08,-2.14 18.08,-2.14l-5.44 23.82z"/>
    <path class="fil0" d="M285.31 501.64c13.81,-10.22 24.89,-16.68 24.89,-16.68 0,0 -22.65,14.55 -37.32,-4.64 -14.66,-19.2 -13.17,15.64 -13.17,15.64l25.61 5.68z"/>
    <path class="fil0" d="M571.34 458.4c-15.68,8.82 -27.17,15.86 -27.17,15.86 0,0 24.02,-15.33 14.51,-37.54 -9.49,-22.22 18.09,-2.13 18.09,-2.13l-5.43 23.81z"/>
    <path class="fil0" d="M344.54 603.14c13.8,-10.21 24.87,-16.67 24.87,-16.67 0,0 -22.64,14.54 -37.31,-4.65 -14.67,-19.19 -13.18,15.64 -13.18,15.64l25.62 5.69z"/>
    <path class="fil0" d="M792.04 836.6c-15.66,8.83 -27.48,15.35 -27.48,15.35 0,0 24.02,-15.32 14.51,-37.53 -9.48,-22.22 18.1,-2.14 18.1,-2.14l-5.13 24.33z"/>
    <path class="fil0" d="M574.11 996.54c12.11,-12.6 22.2,-21.28 22.2,-21.28 0,0 -20.23,18.69 -34.91,-0.5 -14.67,-19.18 -13.17,15.64 -13.17,15.64l25.87 6.15z"/>
    <path class="fil0" d="M729.43 826.02c-11.24,4.94 -22.34,9.38 -34.34,12.16 -14.24,3.31 -28.99,4.18 -43.55,3.13 -29.23,-2.13 -57.4,-13.76 -79.88,-32.43 -46.46,-38.57 -62.93,-104.61 -40.31,-160.56 6.08,-15.04 14.39,-29.54 25.25,-41.7 9.18,-10.31 19.57,-18.73 30.66,-26.89 -25.91,14.93 -48.13,35.03 -61.01,62.6 -13.83,29.62 -18.34,62.98 -10.74,95 13.29,56.1 58.82,97.93 115,108.5 18.08,3.39 36.81,2.44 54.69,-1.4 15.96,-3.42 30.22,-10.31 44.23,-18.42z"/>
    <path class="fil0" d="M280.85 775.96c48.43,92.36 101.06,182.55 155.62,271.39 12.21,19.85 24.62,39.56 37.26,59.14 -48.4,-92.37 -101.06,-182.53 -155.61,-271.38 -12.2,-19.86 -24.63,-39.57 -37.27,-59.16z"/>
    <path class="fil0" d="M216.46 667.97c0.67,8.48 6.31,18.08 13.33,22.85 -0.65,-8.48 -6.32,-18.06 -13.33,-22.85z"/>
    <path class="fil0" d="M155.68 564.46c0.69,8.48 6.32,18.07 13.34,22.85 -0.66,-8.48 -6.33,-18.07 -13.34,-22.85z"/>
    <path class="fil0" d="M69.98 415.47c4.89,12.73 11.58,24.93 18.44,36.68 6.86,11.74 14.13,23.64 22.87,34.1 -4.87,-12.74 -11.57,-24.94 -18.42,-36.68 -6.87,-11.74 -14.16,-23.62 -22.89,-34.1z"/>
    <path class="fil0" d="M429.56 652.07c18.95,39.34 40.41,77.54 61.84,115.58 25.51,45.28 52.15,89.99 79.93,133.94 11.53,18.28 23.18,36.58 35.54,54.32 -18.91,-39.36 -40.4,-77.56 -61.83,-115.59 -25.52,-45.26 -52.18,-89.97 -79.94,-133.91 -11.55,-18.28 -23.19,-36.58 -35.54,-54.33z"/>
    <path class="fil0" d="M365.58 536.4c0.66,8.48 6.3,18.07 13.33,22.85 -0.65,-8.48 -6.33,-18.06 -13.33,-22.85z"/>
    <path class="fil0" d="M308.46 438.52c0.67,8.48 6.31,18.08 13.33,22.85 -0.66,-8.48 -6.33,-18.06 -13.33,-22.85z"/>
    <path class="fil0" d="M224.53 294.7c2.22,12.04 7.87,23.69 14,34.21 6.15,10.51 13.49,21.15 22.89,29.03 -2.21,-12.07 -7.87,-23.72 -14.01,-34.21 -6.16,-10.52 -13.5,-21.15 -22.88,-29.03z"/>
    <path class="fil1" d="M773.43 459.59c42.71,82.55 89.59,163 138.44,242.02 11.13,18 22.46,35.86 34.04,53.56 -42.7,-82.56 -89.61,-162.98 -138.46,-242.01 -11.12,-18.01 -22.46,-35.86 -34.02,-53.57z"/>
    <polygon class="fil1" points="732.03,450.94 814.43,584.47 738.69,447.05 "/>
    <polygon class="fil1" points="944.05,778.58 861.66,645.05 937.39,782.48 "/>
    <path class="fil1" d="M705.96 350.89c0.67,8.49 6.32,18.08 13.33,22.85 -0.65,-8.48 -6.33,-18.06 -13.33,-22.85z"/>
    <path class="fil1" d="M645.18 247.4c0.67,8.47 6.32,18.07 13.33,22.84 -0.63,-8.49 -6.32,-18.07 -13.33,-22.84z"/>
    <path class="fil1" d="M743.67 208.45c0.67,8.48 6.32,18.08 13.33,22.85 -0.65,-8.48 -6.33,-18.06 -13.33,-22.85z"/>
    <path class="fil1" d="M657.16 60.18c4.92,12.9 11.76,25.26 18.7,37.16 6.96,11.91 14.35,23.91 23.15,34.58 -4.91,-12.91 -11.76,-25.27 -18.7,-37.15 -6.96,-11.91 -14.35,-23.92 -23.15,-34.59z"/>
    <path class="fil1" d="M803.54 311.06c0.69,8.46 6.32,18.07 13.34,22.85 -0.66,-8.49 -6.32,-18.07 -13.34,-22.85z"/>
    <path class="fil1" d="M560.35 101.38c4.89,12.73 11.57,24.92 18.43,36.66 6.84,11.74 14.14,23.64 22.87,34.1 -4.86,-12.73 -11.57,-24.93 -18.43,-36.67 -6.86,-11.73 -14.16,-23.62 -22.87,-34.09z"/>
    <polygon class="fil1" points="454.8,136.39 510.03,213.2 463.45,130.86 "/>
    <polygon class="fil1" points="542.03,283.8 569.69,317.51 550.69,278.27 "/>
    <polygon class="fil1" points="600.38,383.77 628.03,417.48 609.03,378.23 "/>
    <polygon class="fil1" points="657.9,484.19 710.27,556.54 666.56,478.66 "/>
    <polygon class="fil0" points="705.99,468.55 858.86,722.89 712.63,464.67 "/>
    <polygon class="fil0" points="646.63,366.86 664.04,389.06 653.29,362.99 "/>
    <polygon class="fil0" points="587.66,265.81 605.07,288 594.31,261.91 "/>
    <polygon class="fil0" points="502.11,119.19 540.06,176.6 508.75,115.29 "/>
    <polygon class="fil0" points="696.53,39.31 735.33,98.2 704.34,37.49 "/>
    <polygon class="fil0" points="782.28,186.3 798.31,206.11 790.1,184.47 "/>
    <polygon class="fil0" points="841.53,287.81 857.56,307.63 849.34,286 "/>
    <polygon class="fil0" points="900.65,389.12 1096.79,717.58 908.46,387.31 "/>
    <polygon class="fil1" points="747.61,46.19 787.35,119.38 791.79,116.8 "/>
    <polygon class="fil1" points="829.51,186.55 846.53,220.78 850.95,218.19 "/>
    <polygon class="fil1" points="890.03,290.22 905.7,322.18 910.14,319.59 "/>
    <polygon class="fil1" points="964.83,418.4 1170.44,775.84 1174.87,773.25 "/>
    <polygon class="fil1" points="327.62,696.44 522.63,1020.42 336.5,691.26 "/>
    <polygon class="fil1" points="268.64,595.37 291.07,623.64 277.51,590.19 "/>
    <polygon class="fil1" points="210.48,495.7 232.91,523.96 219.35,490.52 "/>
    <polygon class="fil1" points="126.12,351.15 173.74,422.56 135,345.97 "/>
    <path class="fil0" d="M474.06 765.75c28.66,55.42 60.17,109.39 92.95,162.45 7.29,11.78 14.71,23.47 22.3,35.05 -28.66,-55.4 -60.19,-109.36 -92.96,-162.43 -7.28,-11.77 -14.71,-23.47 -22.29,-35.07z"/>
    <path class="fil0" d="M369.49 191.83c4.15,11.39 10.03,22.29 16.12,32.74 6.11,10.45 12.68,20.91 20.57,30.14 -4.14,-11.39 -10.02,-22.29 -16.13,-32.73 -6.11,-10.46 -12.69,-20.92 -20.57,-30.15z"/>
    <path class="fil0" d="M455.86 339.86c1.64,10.21 8.29,21.86 16.48,28.23 -1.61,-10.22 -8.31,-21.86 -16.48,-28.23z"/>
    <path class="fil0" d="M514.82 440.87c1.61,10.22 8.28,21.86 16.47,28.23 -1.61,-10.22 -8.29,-21.84 -16.47,-28.23z"/>
    <path class="fil0" d="M574.75 543.57c1.64,10.21 8.29,21.86 16.47,28.22 -1.6,-10.21 -8.29,-21.83 -16.47,-28.22z"/>
    <path class="fil0" d="M737 821.61c0,0 0.29,2.19 1.31,5.16 0.98,2.97 2.66,6.71 4.7,10.24 2.08,3.53 4.5,6.84 6.61,9.16 2.07,2.34 3.85,3.66 3.85,3.66 0,0 -0.28,-2.19 -1.31,-5.16 -0.98,-2.97 -2.66,-6.7 -4.7,-10.25 -2.08,-3.52 -4.52,-6.83 -6.61,-9.15 -2.07,-2.33 -3.85,-3.66 -3.85,-3.66z"/>
    <polygon class="fil1" points="443.47,810.87 560.44,1016.41 564.88,1013.82 "/>
    <polygon class="fil1" points="314.02,589.04 329.07,619.95 333.52,617.36 "/>
    <polygon class="fil1" points="255.51,488.79 270.58,519.7 275.01,517.11 "/>
    <polygon class="fil1" points="170.97,343.91 210.76,417.18 215.19,414.59 "/>
    <path class="fil0" d="M406.3 878.18c13.48,29.91 29.81,58.73 46.34,87.06 16.52,28.31 33.56,56.72 53,83.16 -13.46,-29.92 -29.82,-58.74 -46.35,-87.06 -16.53,-28.31 -33.58,-56.71 -52.99,-83.16z"/>
    <polygon class="fil1" points="568.82,159.81 536.41,99.17 531.98,101.76 "/>
    <path class="fil0" d="M631.9 562.18c-5.58,1.34 -14.07,3.81 -16.36,4.63 8.38,-5.23 14.49,-7.92 10.21,-15.16 -4.29,-7.23 7.94,-1.99 7.94,-1.99l-1.79 12.52z"/>
    <path class="fil0" d="M767.84 795.13c0,0 -11.69,12.13 -17.87,16.79 8.04,-5.02 19.52,-13.01 25.04,-4.51 5.52,8.49 0.54,-14.06 0.54,-14.06l-7.7 1.78z"/>
    <path class="fil0" d="M564.44 533.21c102,-59.51 202.04,-108.16 281.71,-136.99 92.03,-33.3 124.64,-27.92 129.01,-20.42l231.41 396.52c-6.45,2.32 -16.17,4.74 -24.98,6.95 -10.3,2.57 -20.88,5.22 -28.97,8.12 -86.11,-42.71 -236.17,-12.64 -393.6,79.22 -159.7,93.21 -257.29,205.59 -262.34,301.72 -9.3,8.03 -18.49,18.11 -26.69,27.12 -4.57,5.02 -9.55,10.49 -13.37,14.16l-231.25 -396.25c-4.37,-7.5 6.96,-38.54 81.25,-102.28 64.28,-55.19 155.84,-118.35 257.83,-177.87zm-102.14 698.04l0.01 0c6.12,-3.58 13.5,-11.69 22.85,-21.95 8.78,-9.65 18.73,-20.58 28.01,-27.96 2.38,-1.89 3.8,-4.78 3.87,-7.83 1.85,-88.6 98.52,-199.39 252.32,-289.15 153.94,-89.82 298.71,-119.19 377.79,-76.65 2.79,1.5 6.1,1.64 9.01,0.37 6.76,-2.97 18.78,-5.97 30.39,-8.86 15.08,-3.78 28.11,-7.04 35.3,-11.22 10.38,-6.06 9.05,-14.72 6.61,-18.89l-235.57 -403.66c-33.86,-58.04 -280.98,57.91 -438.82,150.02 -157.82,92.11 -380.33,250.21 -346.47,308.25l235.56 403.66c2.28,3.91 6.31,6.27 10.77,6.32 2.75,0.04 5.47,-0.76 8.36,-2.44z"/>
    <path class="fil1" d="M1206.76 780.08c-18.52,5.92 -38.22,8.43 -56.29,15.75 0.19,0.01 0.35,0.01 0.54,0.02 -13.87,-6.07 -27.28,-11.63 -42.13,-14.76 -11.72,-2.47 -23.62,-4.19 -35.59,-4.53 -24.49,-0.68 -48.75,0.88 -72.89,4.93 -46.83,7.87 -92.06,22.68 -135.7,41.18 -65.86,27.93 -129.19,63.99 -186.49,106.89 -40.38,30.21 -78.72,63.56 -110.7,102.7 -26.68,32.64 -50.42,69.85 -59.23,111.63 -1.91,9.04 -2.57,17.96 -3.49,27.15 0.08,-0.16 0.17,-0.34 0.26,-0.52 -16.57,13.53 -29.11,30.99 -44.61,45.59 8.38,-7.56 15.82,-16.1 23.68,-24.2 3.69,-3.81 7.4,-7.6 11.28,-11.24 3.02,-2.82 8.81,-6.07 10.76,-9.58 0.91,-1.65 0.57,-5.29 0.77,-7.21 0.25,-2.39 0.46,-4.79 0.78,-7.18 0.65,-5.12 1.98,-10.02 3.06,-15.04 1.24,-5.69 3.18,-11.08 5.06,-16.58 7.4,-21.7 18.95,-41.74 31.73,-60.68 31.23,-46.26 74.2,-86.11 118.37,-119.57 59.35,-44.98 124.08,-84.97 192.61,-114.43 46.07,-19.79 93.36,-36.41 142.87,-45.36 25.91,-4.68 52.93,-7.56 79.25,-5.38 13.02,1.07 26.63,2.38 39.27,6.02 9.68,2.8 18.76,6.25 28,10.23 4.15,1.78 6.99,-0.61 11.17,-2.03 5.52,-1.87 11.17,-3.4 16.79,-4.95 10.32,-2.83 20.74,-5.37 30.87,-8.84 -9.26,2.96 -9.21,3.16 0,0z"/>
    <path class="fil0" d="M420.43 286.43c-131.81,76.92 -308.74,199.86 -343.77,272.12l-55.47 -95.04c-4.37,-7.5 6.97,-38.55 81.24,-102.29 64.28,-55.19 155.86,-118.34 257.85,-177.86 101.99,-59.52 202.03,-108.17 281.69,-136.99 92.04,-33.32 124.64,-27.92 129.01,-20.4l55.47 95.04c-80.13,-5.06 -274.21,88.5 -406.03,165.42zm-332.43 311.94c4.9,-2.86 6.56,-9.15 3.7,-14.05 -4.39,-7.5 6.95,-38.55 81.23,-102.3 64.29,-55.17 155.86,-118.34 257.86,-177.86 101.98,-59.51 202.02,-108.16 281.68,-137 92.05,-33.29 124.64,-27.91 129.03,-20.4 2.86,4.91 9.15,6.56 14.05,3.7 4.91,-2.86 6.55,-9.15 3.69,-14.05l-70.5 -120.81c-33.87,-58.06 -280.98,57.9 -438.82,150.01 -157.82,92.1 -380.35,250.22 -346.47,308.26l70.51 120.8c2.85,4.91 9.15,6.57 14.04,3.7z"/>
    <path class="fil0" d="M538.55 488.85c-131.81,76.92 -308.74,199.87 -343.76,272.14l-28.61 -49.01c-4.37,-7.5 6.98,-38.54 81.25,-102.29 64.29,-55.19 155.87,-118.35 257.84,-177.86 101.99,-59.52 202.03,-108.17 281.71,-136.99 92.03,-33.32 124.63,-27.92 129.03,-20.4l28.59 49c-80.13,-5.06 -274.23,88.49 -406.04,165.42zm-332.42 311.95c4.9,-2.87 6.55,-9.15 3.7,-14.06 -4.39,-7.5 6.95,-38.53 81.23,-102.29 64.29,-55.17 155.86,-118.33 257.85,-177.86 101.99,-59.52 202.03,-108.17 281.69,-136.99 92.04,-33.3 124.64,-27.92 129.03,-20.4 2.86,4.9 9.15,6.55 14.05,3.69 4.9,-2.86 6.55,-9.15 3.69,-14.05l-43.63 -74.77c-33.88,-58.06 -280.98,57.9 -438.82,150 -157.83,92.11 -380.34,250.22 -346.48,308.26l43.64 74.77c2.86,4.9 9.15,6.56 14.05,3.7z"/>
    <path class="fil0" d="M479.38 387.46c-131.81,76.91 -308.74,199.87 -343.76,272.13l-28.6 -49c-4.38,-7.52 6.95,-38.55 81.24,-102.29 64.29,-55.18 155.85,-118.34 257.86,-177.86 101.98,-59.52 202.02,-108.17 281.68,-136.99 92.05,-33.32 124.64,-27.92 129.03,-20.42l28.6 49c-80.15,-5.06 -274.23,88.51 -406.04,165.44zm-332.42 311.95c4.9,-2.87 6.55,-9.15 3.69,-14.06 -4.37,-7.5 6.96,-38.55 81.23,-102.29 64.29,-55.18 155.87,-118.34 257.86,-177.85 101.99,-59.52 202.02,-108.19 281.68,-137.01 92.05,-33.32 124.65,-27.9 129.04,-20.4 2.85,4.89 9.15,6.55 14.04,3.69 4.91,-2.86 6.57,-9.15 3.7,-14.05l-43.63 -74.78c-33.89,-58.05 -281,57.91 -438.82,150.01 -157.83,92.11 -380.36,250.21 -346.47,308.27l43.63 74.77c2.86,4.9 9.15,6.55 14.05,3.7z"/>
    <path class="fil1" d="M847.85 155.18c0,0 -0.85,-0.14 -2.49,-0.39 -1.63,-0.35 -4.08,-0.64 -7.3,-0.81 -6.45,-0.35 -15.96,-0.03 -27.88,1.74 -23.85,3.49 -57.31,12.31 -96.06,26.57 -38.78,14.21 -83.2,33.01 -129.59,55.61 -46.41,22.58 -95.02,48.51 -142.66,76.06 -11.83,7.03 -23.64,14.05 -35.42,21.06 -11.67,7.21 -23.27,14.4 -34.79,21.53 -22.87,14.54 -45.23,29.07 -66.51,43.66 -10.64,7.31 -21.12,14.44 -31.13,21.8 -10.13,7.2 -19.88,14.44 -29.32,21.56 -18.95,14.17 -36.37,28.2 -52.29,41.35 -7.83,6.73 -15.38,13.12 -22.38,19.41 -6.86,6.46 -13.59,12.31 -19.49,18.3 -5.92,5.94 -11.62,11.35 -16.43,16.79 -4.96,5.32 -9.51,10.19 -13.24,14.94 -3.87,4.61 -7.27,8.75 -9.87,12.67 -2.65,3.85 -5.19,6.93 -6.63,9.83 -3.2,5.61 -4.89,8.6 -4.89,8.6 0,0 1.76,-2.96 5.08,-8.48 1.5,-2.85 4.11,-5.88 6.83,-9.67 2.69,-3.82 6.18,-7.89 10.15,-12.39 3.82,-4.64 8.47,-9.41 13.52,-14.6 4.91,-5.31 10.73,-10.57 16.78,-16.36 12.2,-11.43 26.56,-23.68 42.42,-36.81 16.04,-12.93 33.6,-26.7 52.68,-40.59 9.51,-6.99 19.33,-14.1 29.52,-21.14 10.12,-7.16 20.55,-14.33 31.22,-21.54 21.28,-14.48 43.66,-28.88 66.53,-43.29 11.52,-7.06 23.13,-14.18 34.79,-21.33 11.78,-6.94 23.61,-13.92 35.46,-20.89 47.44,-27.7 95.82,-53.78 142.02,-76.5 46.19,-22.73 90.13,-42.33 128.65,-56.91 38.49,-14.64 71.48,-24.51 95.2,-28.43 11.84,-2.03 21.29,-2.56 27.73,-2.34 3.2,0.09 5.67,0.32 7.3,0.61 1.65,0.23 2.51,0.35 2.51,0.35z"/>
    <path class="fil1" d="M907.02 256.58c0,0 -0.85,-0.15 -2.49,-0.42 -1.63,-0.33 -4.08,-0.62 -7.32,-0.78 -6.42,-0.37 -15.93,-0.05 -27.87,1.74 -23.85,3.48 -57.3,12.29 -96.06,26.56 -38.78,14.21 -83.2,33.01 -129.6,55.61 -46.4,22.58 -95,48.51 -142.64,76.07 -11.83,7.04 -23.65,14.06 -35.43,21.06 -11.65,7.22 -23.27,14.41 -34.79,21.54 -22.86,14.52 -45.24,29.05 -66.51,43.65 -10.63,7.31 -21.12,14.44 -31.14,21.8 -10.13,7.18 -19.88,14.44 -29.31,21.58 -18.95,14.16 -36.38,28.2 -52.28,41.34 -7.84,6.74 -15.39,13.12 -22.39,19.42 -6.85,6.45 -13.6,12.31 -19.48,18.29 -5.92,5.94 -11.63,11.34 -16.46,16.79 -4.95,5.31 -9.48,10.2 -13.22,14.93 -3.87,4.62 -7.28,8.77 -9.88,12.68 -2.65,3.85 -5.19,6.94 -6.63,9.84 -3.19,5.6 -4.9,8.59 -4.9,8.59 0,0 1.77,-2.94 5.08,-8.47 1.5,-2.86 4.12,-5.87 6.85,-9.66 2.67,-3.84 6.17,-7.91 10.14,-12.41 3.81,-4.63 8.45,-9.4 13.51,-14.58 4.92,-5.31 10.74,-10.57 16.77,-16.36 12.2,-11.44 26.57,-23.69 42.43,-36.83 16.04,-12.91 33.6,-26.67 52.69,-40.56 9.5,-6.99 19.32,-14.1 29.52,-21.14 10.1,-7.17 20.54,-14.33 31.19,-21.55 21.3,-14.49 43.68,-28.88 66.56,-43.29 11.51,-7.06 23.13,-14.17 34.78,-21.32 11.79,-6.95 23.63,-13.93 35.47,-20.9 47.41,-27.71 95.79,-53.78 142.03,-76.5 46.19,-22.73 90.11,-42.34 128.63,-56.91 38.47,-14.64 71.48,-24.51 95.21,-28.42 11.84,-2.03 21.29,-2.58 27.71,-2.36 3.22,0.09 5.68,0.33 7.33,0.62 1.65,0.23 2.49,0.35 2.49,0.35z"/>
    <path class="fil1" d="M966.19 357.96c0,0 -0.84,-0.12 -2.48,-0.4 -1.64,-0.33 -4.09,-0.62 -7.31,-0.78 -6.44,-0.37 -15.95,-0.04 -27.87,1.72 -23.86,3.51 -57.33,12.31 -96.07,26.57 -38.79,14.21 -83.21,33.01 -129.6,55.63 -46.42,22.57 -95,48.5 -142.66,76.06 -11.81,7.02 -23.64,14.05 -35.42,21.05 -11.65,7.22 -23.27,14.41 -34.8,21.54 -22.86,14.52 -45.22,29.05 -66.49,43.66 -10.64,7.31 -21.12,14.44 -31.14,21.78 -10.13,7.2 -19.88,14.44 -29.31,21.58 -18.95,14.16 -36.38,28.2 -52.3,41.36 -7.82,6.72 -15.38,13.12 -22.38,19.41 -6.84,6.45 -13.6,12.3 -19.48,18.3 -5.94,5.94 -11.63,11.34 -16.46,16.79 -4.94,5.3 -9.48,10.19 -13.22,14.92 -3.87,4.62 -7.29,8.77 -9.88,12.67 -2.64,3.87 -5.18,6.95 -6.63,9.85 -3.19,5.61 -4.89,8.59 -4.89,8.59 0,0 1.77,-2.94 5.08,-8.47 1.5,-2.86 4.12,-5.89 6.84,-9.66 2.66,-3.84 6.18,-7.9 10.14,-12.41 3.82,-4.63 8.47,-9.4 13.51,-14.58 4.92,-5.31 10.74,-10.57 16.77,-16.36 12.22,-11.44 26.59,-23.69 42.43,-36.82 16.04,-12.91 33.61,-26.68 52.68,-40.57 9.52,-6.99 19.31,-14.1 29.52,-21.14 10.13,-7.16 20.55,-14.33 31.22,-21.54 21.28,-14.49 43.65,-28.88 66.53,-43.3 11.53,-7.05 23.14,-14.17 34.79,-21.32 11.79,-6.95 23.63,-13.93 35.46,-20.9 47.44,-27.7 95.82,-53.79 142.02,-76.49 46.21,-22.73 90.13,-42.36 128.66,-56.92 38.47,-14.64 71.47,-24.51 95.2,-28.42 11.82,-2.03 21.29,-2.57 27.72,-2.36 3.22,0.09 5.67,0.33 7.32,0.62 1.65,0.23 2.49,0.34 2.49,0.34z"/>
    <polygon class="fil1" points="871.22,427.04 1063.52,766.73 1072.39,761.56 "/>
    <path class="fil0" d="M1265.38 1812.66c1.65,-2.81 5.27,-3.76 8.08,-2.13 2.82,1.65 3.76,5.26 2.13,8.08 -1.65,2.81 -5.26,3.76 -8.08,2.11 -2.81,-1.64 -3.76,-5.25 -2.13,-8.06z"/>
    <path class="fil0" d="M1903.19 2575.45c0,0 -20.57,47.06 -31.01,65.21 -7.81,13.58 -27.1,20.5 -32.16,18.34 -11.99,-5.12 -31.92,-13.5 -31.94,-13.13 -0.48,6.49 -1.02,6.22 -2.15,12.58 0.19,-0.05 0.37,-0.09 0.55,-0.15l44.71 25.69c7.5,4.32 17.08,1.73 21.4,-5.78l46.92 -93.39 -16.32 -9.38z"/>
   </g>
   <g>
    <g>
     <path class="fil0" d="M4025.33 435.65c183.73,-107.21 420.4,-44.98 527.62,138.74 107.21,183.72 44.96,420.41 -138.76,527.62 -183.72,107.22 -420.4,44.97 -527.61,-138.76 -107.22,-183.7 -44.96,-420.38 138.75,-527.6zm457.55 784.07c248.65,-145.09 332.88,-465.39 187.76,-714.02 -145.07,-248.62 -465.38,-332.85 -713.99,-187.76 -248.62,145.1 -332.85,465.4 -187.78,714.02 145.11,248.62 465.41,332.85 714.02,187.76z"/>
     <path class="fil1" d="M3947.8 1180.3c22.12,13.27 43.99,25.97 67.36,36.92 27.42,12.81 56.5,21.97 85.75,29.58 60.19,15.67 124.74,17.12 186.23,9.15 116.72,-15.11 232.81,-74.11 308.14,-165.54 74.67,-90.64 116.3,-200.98 116.66,-318.89 0.4,-133.01 -51.71,-265.23 -147.91,-357.96 -87.34,-84.17 -205.88,-134 -327.14,-137.78 -9.27,-0.28 -18.57,-0.18 -27.88,-0.2 115.52,2.81 227.3,39.47 317.21,113.53 100.63,82.83 163.02,206.28 173.96,335.82 10.13,119.7 -22.49,249.53 -99.38,343.53 -28.1,34.36 -58.52,66.43 -95.2,91.94 -54.36,37.81 -114.7,66.4 -179.37,81.47 -117.05,27.24 -248.83,12.67 -353.73,-47.45 -8.22,-4.72 -16.48,-9.41 -24.71,-14.1z"/>
     <path class="fil1" d="M4016.15 1176.85c44.82,20.34 90.02,36.51 138.96,43.64 53.72,7.84 108.32,5.58 161.48,-5.07 98.39,-19.73 188.6,-72.79 254.35,-148.39 146.26,-168.06 141.98,-439.86 -8.1,-604 -80.53,-88.07 -189.17,-137.66 -307.1,-148.91 97.09,11.77 187.84,48.95 261.7,113.95 83.95,73.87 136.89,179.53 148.63,290.56 10.9,103.34 -13.22,210.81 -69.97,298.18 -60.01,92.46 -156.36,160.25 -262.98,187.84 -55.34,14.32 -112.33,18 -169.19,13.01 -51.79,-4.54 -100.23,-20.68 -147.79,-40.81z"/>
     <path class="fil1" d="M4176.51 355.42c-61.42,4.81 -120.16,19.97 -174.54,49.52 -62.74,34.08 -116.62,84.82 -152.36,146.81 -74.37,129.04 -75.95,286.81 -4.46,417.37 32.72,59.74 82.59,107.79 140.03,143.54 -47.07,-34.38 -87.52,-75.66 -117.99,-125.58 -36.6,-59.91 -56.76,-128.78 -60.15,-198.83 -6.88,-141.22 59.65,-280.49 176.74,-360.5 57.96,-39.62 123.77,-61.79 192.72,-72.33z"/>
     <path class="fil1" d="M3936.09 282.76c268.02,-156.41 613.33,-65.61 769.75,202.41 156.39,268.03 65.58,613.32 -202.45,769.74 -268.01,156.39 -613.28,65.59 -769.72,-202.43 -156.39,-268.02 -65.6,-613.32 202.42,-769.73zm609.59 1044.58c307.97,-179.72 412.31,-576.47 232.59,-884.45 -179.73,-307.94 -576.49,-412.29 -884.45,-232.56 -307.94,179.7 -412.29,576.46 -232.59,884.43 179.73,307.97 576.49,412.3 884.45,232.59z"/>
     <path class="fil0" d="M3709.39 540.16c0,0 -2.49,5.36 -7.13,15.41 -4.52,10.05 -11.03,25.04 -17.73,44.63 -13.14,39.09 -28.95,97.26 -29.86,169.02 -0.56,35.75 2.14,74.67 9.99,115.04 1.07,5.03 2.14,10.09 3.24,15.17l1.75 8.06 2.17 7.47c2.86,10 5.79,20.11 8.75,30.34 1.47,5.12 2.97,10.26 4.44,15.43 1.68,5.15 4.04,10.24 6.04,15.39 4.18,10.32 8.42,20.71 12.71,31.21 3.82,10.74 9.97,20.26 15.12,30.51 5.41,10.03 10.52,20.36 16.35,30.36 6.43,9.65 12.84,19.35 19.35,29.1l9.83 14.62c3.56,4.67 7.46,9.14 11.14,13.73 7.56,9.11 15.09,18.27 22.67,27.45 7.96,8.85 16.76,16.96 25.11,25.51 16.27,17.65 35.84,31.83 54.17,47.33 38.89,28.02 80.11,53.46 124.17,70.77 43.26,19.44 89.06,29.47 133.15,37.67 11.2,1.12 22.29,2.24 33.26,3.34 11.02,0.98 21.84,2.66 32.69,2.12 10.8,-0.04 21.49,-0.1 32.04,-0.13 5.28,-0.12 10.55,0.12 15.73,-0.28 5.18,-0.54 10.33,-1.08 15.44,-1.61 20.42,-2.34 40.44,-3.41 59.22,-8.31 18.75,-4.18 37.42,-7.42 54.23,-12.8 68.88,-20.52 120.66,-51.09 154.74,-74.41 17.1,-11.7 29.64,-22.09 38.2,-29.11 8.4,-7.24 12.86,-11.08 12.86,-11.08 0,0 -4.71,3.55 -13.54,10.18 -8.98,6.51 -22.29,15.73 -39.75,26.6 -17.5,10.81 -39.4,22.91 -65.45,34.62 -26.05,11.57 -56.5,22.65 -90.17,31.59 -17.15,4.78 -35.03,7.13 -53.62,10.62 -18.41,4.15 -37.95,4.76 -57.86,6.5 -4.98,0.4 -9.99,0.79 -15.05,1.2 -5.04,0.25 -10.15,-0.13 -15.26,-0.16 -10.25,-0.22 -20.62,-0.44 -31.09,-0.66 -10.5,0.25 -20.99,-1.65 -31.62,-2.73 -10.6,-1.22 -21.32,-2.46 -32.15,-3.7 -42.61,-8.52 -86.47,-19.31 -128.14,-38.09 -42.44,-16.88 -82,-41.7 -119.41,-68.84 -17.71,-14.86 -36.68,-28.37 -52.42,-45.34 -8.11,-8.2 -16.66,-15.97 -24.33,-24.45 -7.35,-8.82 -14.69,-17.62 -21.99,-26.38 -3.61,-4.4 -7.39,-8.67 -10.87,-13.15l-9.56 -14.04c-6.41,-9.32 -12.76,-18.59 -19.12,-27.8 -5.79,-9.56 -10.85,-19.47 -16.26,-29.08 -5.06,-9.78 -11.29,-19.03 -15.01,-29.16 -4.24,-9.91 -8.43,-19.76 -12.59,-29.51 -2.03,-4.93 -4.35,-9.63 -6.09,-14.67 -1.65,-5.12 -3.24,-10.23 -4.83,-15.3 -3.22,-10.15 -6.41,-20.19 -9.56,-30.1l-2.35 -7.42 -1.7 -7.01c-1.17,-4.93 -2.37,-9.82 -3.52,-14.68 -8.5,-39.1 -12.53,-76.91 -13.28,-111.91 -0.62,-35.02 1.82,-67.18 6.03,-95.44 4.22,-28.25 10.15,-52.55 15.71,-72.34 5.83,-19.74 10.95,-35.08 14.91,-45.43 3.96,-10.32 6.09,-15.83 6.09,-15.83z"/>
     <path class="fil0" d="M4428.05 244.86c0,0 -7.38,-3.72 -20.45,-9.73 -6.71,-2.67 -14.74,-6.46 -24.26,-9.73 -9.45,-3.54 -20.27,-7.16 -32.24,-10.57 -23.91,-6.88 -52.5,-12.89 -83.62,-16.06 -15.58,-1.49 -31.72,-2.55 -48.18,-2.62 -16.43,0.2 -33.15,0.77 -49.77,2.29 -16.6,1.77 -33.16,4.06 -49.29,7.28 -8.09,1.45 -16.03,3.19 -23.85,5.29 -7.82,1.89 -15.58,3.99 -22.89,6.16 -30.14,8.9 -57.05,20.07 -79.28,31.37 -22.3,11.09 -39.75,22.28 -51.69,30.42 -11.87,8.23 -18.31,13.39 -18.31,13.39 0,0 7.44,-3.54 20.37,-9.78 13.01,-6.06 31.69,-14.38 54.49,-23.01 11.39,-4.29 23.86,-8.58 37.1,-12.84 13.21,-4.16 27.5,-8.03 41.98,-11.69 7.53,-1.87 14.96,-3.52 22.59,-4.99 7.61,-1.62 15.34,-3.04 23.17,-4.39 15.58,-2.89 31.57,-4.83 47.6,-6.33 16,-1.72 32.08,-2.52 47.95,-2.94 7.92,0 15.78,0 23.56,-0.03 7.78,0.3 15.46,0.28 23.01,0.8 15.09,0.95 29.7,1.99 43.51,3.69 13.81,1.67 26.82,3.64 38.85,5.66 11.97,2.25 22.96,4.34 32.67,6.56 9.75,2.07 18.07,4.36 25.08,5.96 13.94,3.72 21.9,5.84 21.9,5.84z"/>
     <path class="fil0" d="M3925.54 264.66c278,-162.25 636.16,-68.05 798.41,209.94 162.22,278.02 68.04,636.18 -209.98,798.41 -278,162.24 -636.15,68.05 -798.37,-209.95 -162.25,-278 -68.08,-636.18 209.94,-798.39zm609.58 1044.57c297.99,-173.89 398.95,-557.78 225.03,-855.77 -173.87,-297.97 -557.79,-398.93 -855.75,-225.03 -297.97,173.89 -398.92,557.77 -225.04,855.76 173.87,297.99 557.79,398.93 855.76,225.05z"/>
    </g>
    <g>
     <path class="fil0" d="M3827.07 2220.11c-150.26,-216.55 -96.34,-514.95 120.2,-665.22 216.54,-150.26 514.97,-96.32 665.22,120.23 150.27,216.54 96.33,514.95 -120.23,665.21 -216.53,150.27 -514.92,96.31 -665.19,-120.22zm924.16 -641.25c-203.35,-293.08 -607.17,-366.05 -900.23,-162.68 -293.05,203.32 -366.03,607.16 -162.68,900.2 203.35,293.05 607.18,366.03 900.23,162.71 293.05,-203.37 366.02,-607.19 162.68,-900.22z"/>
     <path class="fil1" d="M4754.44 2243.64c14.25,-28.62 27.82,-56.86 39.07,-86.79 13.17,-35.12 21.66,-71.93 28.22,-108.79 13.52,-75.87 9.05,-155.74 -6.76,-230.93 -29.99,-142.72 -114.13,-280.4 -234.38,-364.59 -119.21,-83.45 -259.55,-124.16 -405.24,-113.18 -164.35,12.41 -322.61,89.6 -427.83,217.43 -95.51,116.05 -145.55,267.32 -138.47,417.47 0.56,11.48 1.58,22.96 2.46,34.45 -7.73,-142.97 26.71,-284.61 109.47,-402.86 92.56,-132.35 239,-221.39 397.96,-247.47 146.89,-24.12 310.42,3.58 433.99,89.45 45.17,31.38 87.74,65.85 122.81,108.68 51.98,63.48 93.14,135.25 118.03,213.67 45,141.94 39.79,306.14 -24.31,441.56 -5.03,10.61 -10.02,21.26 -15.02,31.89z"/>
     <path class="fil1" d="M4743.55 2159.55c20.78,-57.34 36.37,-114.74 40.43,-175.89 4.47,-67.12 -3.62,-134.34 -21.93,-198.98 -33.91,-119.63 -108.21,-225.92 -207.98,-299.8 -221.79,-164.38 -557.13,-132.72 -745.32,68.59 -100.99,108.02 -151.7,247.04 -154.16,393.8 5.12,-121.07 42.24,-236.78 115.38,-334.33 83.11,-110.86 208.5,-186.51 344.5,-211.79 126.6,-23.49 261.69,-4.12 375.12,57.52 120.03,65.16 213.12,177.6 257.54,306.63 23.06,66.97 33.12,137.02 32.48,207.73 -0.58,64.41 -15.83,125.82 -36.08,186.51z"/>
     <path class="fil1" d="M3713.29 2041.14c11.9,75.41 36.32,146.5 78.1,210.8 48.19,74.19 116.09,135.83 196.13,173.97 166.61,79.35 361.65,66 516.01,-34.97 70.62,-46.21 125.15,-112.48 163.73,-186.9 -37.9,61.48 -84.97,115.45 -143.68,157.93 -70.45,51.03 -153.57,82.6 -239.78,93.59 -173.78,22.19 -352.27,-46.48 -462.46,-183.36 -54.57,-67.76 -88.33,-146.89 -108.05,-231.04z"/>
     <path class="fil1" d="M3646.86 2345.17c-219.21,-315.91 -140.53,-751.28 175.37,-970.49 315.93,-219.18 751.26,-140.5 970.48,175.42 219.18,315.9 140.51,751.21 -175.4,970.46 -315.91,219.18 -751.26,140.52 -970.46,-175.39zm1231.22 -854.34c-251.87,-362.99 -752.1,-453.41 -1115.11,-201.53 -362.96,251.89 -453.38,752.11 -201.49,1115.11 251.85,362.96 752.08,453.38 1115.07,201.52 363,-251.89 453.39,-752.12 201.52,-1115.1z"/>
     <path class="fil0" d="M3986.8 2600.24c0,0 6.86,2.56 19.73,7.32 12.85,4.6 31.99,11.19 56.86,17.58 49.57,12.44 122.95,26.33 211.68,20.49 44.21,-2.78 92.03,-9.89 141.14,-23.5 6.1,-1.81 12.26,-3.62 18.43,-5.47l9.78 -2.94 9.02 -3.41c12.08,-4.51 24.28,-9.1 36.62,-13.75 6.18,-2.31 12.38,-4.66 18.63,-6.98 6.2,-2.57 12.26,-5.99 18.42,-8.96 12.34,-6.17 24.77,-12.41 37.32,-18.73 12.9,-5.76 24.06,-14.29 36.22,-21.64 11.86,-7.65 24.13,-14.97 35.92,-23.14 11.29,-8.88 22.65,-17.74 34.07,-26.72l17.1 -13.56c5.43,-4.85 10.57,-10.1 15.87,-15.09 10.52,-10.23 21.11,-20.41 31.71,-30.66 10.16,-10.69 19.33,-22.35 29.08,-33.49 20.22,-21.81 35.84,-47.35 53.21,-71.5 30.85,-50.76 58.27,-104.14 75.38,-160.25 19.82,-55.32 27.76,-112.88 33.61,-168.13 0.29,-13.94 0.61,-27.75 0.9,-41.41 0.14,-13.71 1.17,-27.24 -0.55,-40.59 -1.09,-13.34 -2.21,-26.54 -3.27,-39.56 -0.66,-6.51 -0.87,-13.05 -1.87,-19.41 -1.17,-6.35 -2.34,-12.65 -3.49,-18.91 -4.87,-25 -8.14,-49.63 -16.01,-72.35 -6.98,-22.76 -12.8,-45.5 -21.07,-65.75 -32.03,-83.1 -74.82,-144.09 -106.93,-183.93 -16.12,-19.99 -30.16,-34.48 -39.67,-44.36 -9.76,-9.68 -14.94,-14.82 -14.94,-14.82 0,0 4.84,5.47 13.89,15.73 8.91,10.46 21.6,26.01 36.71,46.52 15.06,20.57 32.13,46.44 49.11,77.49 16.82,31.06 33.46,67.6 47.77,108.32 7.57,20.72 12.21,42.58 18.31,65.21 6.91,22.34 9.56,46.42 13.64,70.84 0.97,6.12 1.95,12.27 2.94,18.48 0.8,6.2 0.83,12.55 1.28,18.87 0.72,12.68 1.46,25.52 2.2,38.47 1.32,12.95 -0.01,26.09 -0.3,39.32 -0.48,13.21 -0.97,26.58 -1.46,40.07 -6.4,53.47 -15.47,108.69 -34.62,161.98 -16.73,54.06 -43.56,105.34 -73.46,154.18 -16.64,23.31 -31.49,48.07 -50.92,69.15 -9.34,10.81 -18.11,22.13 -27.85,32.43 -10.18,9.94 -20.34,19.85 -30.45,29.72 -5.08,4.89 -10,9.96 -15.19,14.7l-16.42 13.17c-10.89,8.82 -21.72,17.56 -32.48,26.31 -11.24,8.08 -23,15.29 -34.35,22.9 -11.59,7.2 -22.42,15.8 -34.56,21.37 -11.83,6.2 -23.59,12.33 -35.23,18.41 -5.89,2.98 -11.48,6.3 -17.53,8.95 -6.17,2.53 -12.32,5 -18.43,7.45 -12.23,4.97 -24.32,9.88 -36.25,14.72l-8.94 3.62 -8.5 2.77c-5.98,1.92 -11.91,3.88 -17.79,5.77 -47.48,14.29 -93.79,22.94 -136.95,27.26 -43.19,4.17 -83.16,4.26 -118.48,1.81 -35.31,-2.47 -65.9,-7.44 -90.88,-12.39 -24.95,-5.29 -44.39,-10.12 -57.56,-14.02 -13.13,-3.89 -20.15,-5.98 -20.15,-5.98z"/>
     <path class="fil0" d="M3577.62 1737.81c0,0 -3.88,9.48 -10.03,26.2 -2.65,8.55 -6.55,18.83 -9.66,30.91 -3.46,12.02 -6.88,25.74 -9.93,40.86 -6.18,30.2 -10.83,66.1 -11.73,104.85 -0.33,19.4 -0.07,39.43 1.44,59.76 1.84,20.28 4.17,40.87 7.66,61.26 3.8,20.34 8.24,40.57 13.77,60.18 2.57,9.85 5.5,19.49 8.84,28.95 3.1,9.47 6.44,18.86 9.83,27.67 13.92,36.38 30.33,68.52 46.44,94.89 15.86,26.47 31.38,46.94 42.59,60.9 11.31,13.87 18.31,21.31 18.31,21.31 0,0 -5.09,-8.84 -14.05,-24.22 -8.74,-15.49 -20.84,-37.75 -33.71,-65.07 -6.4,-13.66 -12.91,-28.64 -19.46,-44.58 -6.42,-15.91 -12.59,-33.19 -18.51,-50.73 -3.04,-9.12 -5.8,-18.14 -8.35,-27.42 -2.74,-9.24 -5.24,-18.65 -7.67,-28.19 -5.08,-18.97 -9.03,-38.52 -12.44,-58.19 -3.67,-19.6 -6.22,-39.39 -8.28,-58.95 -0.77,-9.79 -1.53,-19.49 -2.32,-29.1 -0.38,-9.64 -1.16,-19.12 -1.25,-28.51 -0.29,-18.73 -0.42,-36.88 0.34,-54.11 0.73,-17.22 1.89,-33.49 3.23,-48.53 1.62,-15 3.13,-28.79 4.93,-40.99 1.61,-12.24 3.63,-22.75 4.93,-31.56 3.24,-17.58 5.09,-27.61 5.09,-27.61z"/>
     <path class="fil0" d="M3625.52 2359.96c-227.39,-327.67 -145.77,-779.23 181.89,-1006.62 327.7,-227.35 779.26,-145.76 1006.63,181.94 227.37,327.67 145.77,779.22 -181.91,1006.58 -327.67,227.39 -779.25,145.8 -1006.61,-181.89zm1231.21 -854.32c-243.7,-351.23 -727.71,-438.71 -1078.95,-194.97 -351.21,243.68 -438.68,727.73 -194.97,1078.92 243.7,351.2 727.7,438.68 1078.93,194.98 351.23,-243.69 438.69,-727.73 194.99,-1078.93z"/>
     <path class="fil0" d="M4154.93 1267.31c0,0 -10.24,0.17 -28.04,1.1 -8.9,0.93 -19.89,1.39 -32.21,3.29 -12.41,1.55 -26.36,3.81 -41.47,6.96 -30.2,6.21 -65.03,16.07 -101,30.51 -17.96,7.33 -36.27,15.46 -54.37,24.86 -17.92,9.68 -35.93,19.92 -53.3,31.16 -17.2,11.5 -34.05,23.55 -49.9,36.36 -8.04,6.24 -15.75,12.73 -23.13,19.53 -7.49,6.58 -14.8,13.35 -21.57,19.93 -27.96,27.11 -51.04,54.86 -68.94,80.05 -18.09,25 -30.79,47.33 -39.21,63.13 -8.3,15.86 -12.38,25.23 -12.38,25.23 0,0 6.12,-8.17 16.73,-22.45 10.79,-14.14 26.5,-34.02 46.54,-56.61 10.03,-11.27 21.25,-23.15 33.32,-35.45 12.1,-12.17 25.56,-24.64 39.34,-36.99 7.18,-6.39 14.39,-12.47 21.92,-18.48 7.41,-6.15 15.08,-12.16 22.9,-18.15 15.44,-12.14 31.85,-23.47 48.59,-34.35 16.57,-11.09 33.76,-21.23 50.92,-30.82 8.69,-4.56 17.31,-9.08 25.83,-13.59 8.71,-4.14 17.12,-8.59 25.71,-12.37 17.1,-7.65 33.74,-14.91 49.87,-20.99 16.12,-6.11 31.53,-11.44 45.88,-16.14 14.42,-4.42 27.7,-8.46 39.62,-11.61 11.89,-3.34 22.34,-5.62 30.95,-7.89 17.43,-3.94 27.39,-6.2 27.39,-6.2z"/>
    </g>
   </g>
  </g>
 </g>
</svg>
