<svg width="20" height="20" viewBox="0 0 20 20" fill="none" xmlns="http://www.w3.org/2000/svg">
<path d="M19.3333 9.16658V4.25959L14.6667 2.70392V9.16658H14V1.83325H6V9.16658H5.33333V5.16658H4.66667V2.83325H3.33333V0.833252H2.66667V2.83325H1.33333V5.16658H0.666667V9.16658H0V18.4999H6V19.1666H14V18.4999H20V9.16658H19.3333ZM2 3.49992H4V5.16658H2V3.49992ZM1.33333 5.83325H4.66667V9.16658H1.33333V5.83325ZM6 17.8333H0.666667V9.83325H6V17.8333ZM10.6667 18.4999H9.33333V15.1666H10.6667V18.4999ZM13.3333 18.4999H11.3333V14.4999H8.66667V18.4999H6.66667V2.49992H13.3333V18.4999ZM15.3333 3.62925L18.6667 4.74025V9.16658H18V5.16658H17.3333V9.16658H16.6667V5.16658H16V9.16658H15.3333V3.62925ZM17.3333 17.8333H16V16.4999H17.3333V17.8333ZM19.3333 17.8333H18V15.8333H15.3333V17.8333H14V9.83325H19.3333V17.8333Z" fill="#A0A0A5"/>
<path d="M5.33334 10.5H1.33334V11.1667H5.33334V10.5Z" fill="#A0A0A5"/>
<path d="M5.33334 11.8333H1.33334V12.4999H5.33334V11.8333Z" fill="#A0A0A5"/>
<path d="M5.33334 13.1667H1.33334V13.8334H5.33334V13.1667Z" fill="#A0A0A5"/>
<path d="M5.33334 14.5H1.33334V15.1667H5.33334V14.5Z" fill="#A0A0A5"/>
<path d="M7.66667 3.83325V5.83325H9.66667V3.83325H7.66667ZM9 5.16659H8.33334V4.49992H9V5.16659Z" fill="#A0A0A5"/>
<path d="M10.3333 3.83325V5.83325H12.3333V3.83325H10.3333ZM11.6667 5.16659H11V4.49992H11.6667V5.16659Z" fill="#A0A0A5"/>
<path d="M7.66667 6.5V8.5H9.66667V6.5H7.66667ZM9 7.83333H8.33334V7.16667H9V7.83333Z" fill="#A0A0A5"/>
<path d="M10.3333 6.5V8.5H12.3333V6.5H10.3333ZM11.6667 7.83333H11V7.16667H11.6667V7.83333Z" fill="#A0A0A5"/>
<path d="M7.66667 9.16675V11.1667H9.66667V9.16675H7.66667ZM9 10.5001H8.33334V9.83341H9V10.5001Z" fill="#A0A0A5"/>
<path d="M10.3333 9.16675V11.1667H12.3333V9.16675H10.3333ZM11.6667 10.5001H11V9.83341H11.6667V10.5001Z" fill="#A0A0A5"/>
<path d="M7.66667 11.8333V13.8333H9.66667V11.8333H7.66667ZM9 13.1666H8.33334V12.4999H9V13.1666Z" fill="#A0A0A5"/>
<path d="M10.3333 11.8333V13.8333H12.3333V11.8333H10.3333ZM11.6667 13.1666H11V12.4999H11.6667V13.1666Z" fill="#A0A0A5"/>
<path d="M15.3333 10.5H14.6667V11.1667H15.3333V10.5Z" fill="#A0A0A5"/>
<path d="M17.3333 10.5H16V11.1667H17.3333V10.5Z" fill="#A0A0A5"/>
<path d="M18.6667 10.5H18V11.1667H18.6667V10.5Z" fill="#A0A0A5"/>
<path d="M15.3333 11.8333H14.6667V12.4999H15.3333V11.8333Z" fill="#A0A0A5"/>
<path d="M17.3333 11.8333H16V12.4999H17.3333V11.8333Z" fill="#A0A0A5"/>
<path d="M18.6667 11.8333H18V12.4999H18.6667V11.8333Z" fill="#A0A0A5"/>
<path d="M15.3333 13.1667H14.6667V13.8334H15.3333V13.1667Z" fill="#A0A0A5"/>
<path d="M17.3333 13.1667H16V13.8334H17.3333V13.1667Z" fill="#A0A0A5"/>
<path d="M18.6667 13.1667H18V13.8334H18.6667V13.1667Z" fill="#A0A0A5"/>
<path d="M15.3333 14.5H14.6667V15.1667H15.3333V14.5Z" fill="#A0A0A5"/>
<path d="M17.3333 14.5H16V15.1667H17.3333V14.5Z" fill="#A0A0A5"/>
<path d="M18.6667 14.5H18V15.1667H18.6667V14.5Z" fill="#A0A0A5"/>
</svg>
