<svg width="21" height="20" viewBox="0 0 21 20" fill="none" xmlns="http://www.w3.org/2000/svg">
<path d="M15.9687 0H5.96869C4.93244 0 4.09369 0.839375 4.09369 1.875V18.125C4.09369 19.1612 4.93306 20 5.96869 20H15.9687C17.0037 20 17.8437 19.16 17.8437 18.125V1.875C17.8437 0.83875 17.0037 0 15.9687 0ZM16.5937 18.125C16.5937 18.4694 16.3131 18.75 15.9687 18.75H5.96869C5.62369 18.75 5.34369 18.4706 5.34369 18.125V16.8725H16.5937V18.125ZM16.5937 16.2475H5.34369V3.75H16.5937V16.2475ZM16.5937 3.125H5.34369V1.875C5.34369 1.53 5.62369 1.25 5.96869 1.25H15.9687C16.3131 1.25 16.5937 1.53 16.5937 1.875V3.125Z" fill="#A0A0A5"/>
<path d="M12.2187 2.1875C12.2187 2.36 12.0781 2.5 11.9062 2.5H10.0312C9.85806 2.5 9.71869 2.36 9.71869 2.1875C9.71869 2.01437 9.85806 1.875 10.0312 1.875H11.9062C12.0781 1.875 12.2187 2.01437 12.2187 2.1875Z" fill="#A0A0A5"/>
<path d="M11.5937 17.8101C11.5937 17.9819 11.4531 18.1226 11.2812 18.1226H10.6562C10.4837 18.1226 10.3437 17.9819 10.3437 17.8101C10.3437 17.6369 10.4837 17.4976 10.6562 17.4976H11.2812C11.4531 17.4976 11.5937 17.6369 11.5937 17.8101Z" fill="#A0A0A5"/>
</svg>
